STARTFONT 2.1
FONT -FontForge-Meteocons-Normal-R-Normal--120-1150-75-75-P-1164-ISO10646-1
SIZE 115 75 75
FONTBOUNDINGBOX 120 122 0 -8
COMMENT "Generated by fontforge, http://fontforge.sourceforge.net"
COMMENT "Copyright 2012 Adobe Systems Incorporated. All rights reserved."
STARTPROPERTIES 37
FOUNDRY "FontForge"
FAMILY_NAME "Meteocons"
WEIGHT_NAME "Normal"
SLANT "R"
SETWIDTH_NAME "Normal"
ADD_STYLE_NAME ""
PIXEL_SIZE 120
POINT_SIZE 1150
RESOLUTION_X 75
RESOLUTION_Y 75
SPACING "P"
AVERAGE_WIDTH 1164
CHARSET_REGISTRY "ISO10646"
CHARSET_ENCODING "1"
FONTNAME_REGISTRY ""
CHARSET_COLLECTIONS "ISO10646-1"
FONT_NAME "Meteocons"
FACE_NAME "Meteocons"
COPYRIGHT "Copyright 2012 Adobe Systems Incorporated. All rights reserved."
FONT_VERSION "001.001"
FONT_ASCENT 112
FONT_DESCENT 8
UNDERLINE_POSITION 0
UNDERLINE_THICKNESS 0
CAP_HEIGHT 113
RAW_ASCENT 937
RAW_DESCENT 62
RELATIVE_WEIGHT 40
RELATIVE_SETWIDTH 50
SUPERSCRIPT_X 0
SUPERSCRIPT_Y 41
SUPERSCRIPT_SIZE 71
SUBSCRIPT_X 0
SUBSCRIPT_Y 8
SUBSCRIPT_SIZE 71
FIGURE_WIDTH -1
AVG_UPPERCASE_WIDTH 1200
ENDPROPERTIES
CHARS 34
STARTCHAR quotesingle
ENCODING 39
SWIDTH 1000 0
DWIDTH 120 0
BBX 30 105 45 -1
BITMAP
000FC000
001FE000
003FF000
007FF800
00FFFC00
00FFFC00
00FFFC00
00FFFE00
01FFFE00
01FFFE00
01FFFE00
01FFFE00
01FFFE00
01FFFE00
01FFFE00
01FFFE00
01FFFE00
01FFFE00
01FFFE00
01FFFE00
01FFFE00
01FFFE00
01FFFE00
01FFFE00
01FFFE00
01FFFE00
01FFFE00
01FFFE00
01FFFE00
01FFFE00
01FFFE00
01FFFE00
01FFFE00
01FFFE00
01FFFE00
01FFFE00
01FFFE00
01FFFE00
01FFFE00
01FFFE00
01FFFE00
01FFFE00
01FFFE00
01FFFE00
01FFFE00
01FFFE00
01FFFE00
01FFFE00
01FFFE00
01FFFE00
01FFFE00
01FFFE00
01FFFE00
01FFFE00
01FFFE00
01FFFE00
01FFFE00
01FFFE00
01FFFE00
01FFFE00
01FFFE00
01FFFE00
01FFFE00
01FFFE00
01FFFE00
01FFFE00
01FFFE00
01FFFE00
01FFFE00
01FFFE00
01FFFE00
01FFFE00
01FFFE00
01FFFE00
01FFFE00
01FFFE00
01FFFE00
01FFFE00
07FFFF80
0FFFFFC0
1FFFFFE0
1FFFFFF0
3FFFFFF0
7FFFFFF8
7FFFFFF8
7FFFFFF8
FFFFFFFC
FFFFFFFC
FFFFFFFC
FFFFFFFC
FFFFFFFC
FFFFFFFC
FFFFFFFC
FFFFFFFC
7FFFFFF8
7FFFFFF8
7FFFFFF8
3FFFFFF0
1FFFFFE0
1FFFFFE0
0FFFFFC0
07FFFF00
01FFFE00
00FFF800
001FE000
ENDCHAR
STARTCHAR parenleft
ENCODING 40
SWIDTH 1000 0
DWIDTH 120 0
BBX 120 121 0 -7
BITMAP
0000000000000FFFF0000000000000
000000000003FFFFFFC00000000000
00000000003FFFFFFFFC0000000000
0000000001FFFFFFFFFF8000000000
0000000007FFFFFFFFFFE000000000
000000001FFFFFFFFFFFFC00000000
000000007FFFFFFFFFFFFF00000000
00000001FFFFFFFFFFFFFF80000000
00000007FFFFFFFFFFFFFFE0000000
0000000FFFFFFFFFFFFFFFF8000000
0000003FFFFFFFFFFFFFFFFC000000
0000007FFFFFFFFFFFFFFFFF000000
000001FFFFFFFFFFFFFFFFFF800000
000003FFFFFFFFFFFFFFFFFFC00000
000007FFFFFFFFFFFFFFFFFFE00000
00000FFFFFFFF8001FFFFFFFF00000
00001FFFFFFF000000FFFFFFF80000
00003FFFFFF80000001FFFFFFC0000
00007FFFFFC000000003FFFFFE0000
0000FFFFFF0000000000FFFFFF0000
0001FFFFFC00000000003FFFFF8000
0003FFFFF800000000001FFFFFC000
0007FFFFE0000000000007FFFFE000
000FFFFFC0000000000003FFFFF000
000FFFFF80000000000001FFFFF000
001FFFFE000000000000007FFFF800
003FFFFC000000000000003FFFFC00
003FFFF8000000000000001FFFFE00
007FFFF0000000000000000FFFFE00
00FFFFE00000000000000007FFFF00
00FFFFC00000000000000003FFFF00
01FFFF800000000000000001FFFF80
01FFFF800000000000000001FFFFC0
03FFFF000000000000000000FFFFC0
03FFFE0000000000000000007FFFC0
07FFFC0000000000000000003FFFE0
07FFFC0000000000000000003FFFE0
0FFFF80000000000000000001FFFF0
0FFFF80000000000000040001FFFF0
0FFFF000000000000001C0000FFFF8
1FFFF000000000000007800007FFF8
1FFFE00000000000001F800007FFF8
1FFFE00000000000007F000007FFFC
3FFFC0000000000001FF000003FFFC
3FFFC0000000000007FE000003FFFC
3FFF8000000000001FFE000001FFFC
3FFF8000000000007FFC000001FFFE
7FFF800000000001FFFC000001FFFE
7FFF800000000007FFF8000000FFFE
7FFF00000000001FFFF8000000FFFE
7FFF00000000007FFFF0000000FFFE
7FFF0000000001FFFFF0000000FFFE
FFFF0000000007FFFFE0000000FFFF
FFFF000000000FFFFFE00000007FFF
FFFE000000000FFFFFC00000007FFF
FFFE000000001FFFFFC00000007FFF
FFFE000000001FFFFF800000007FFF
FFFE000000003FFFFF800000007FFF
FFFE000000003FFFFF000000007FFF
FFFE000000007FFFFF000000007FFF
FFFE000000007FFFFE000000007FFF
FFFE00000000FFFFFE000000007FFF
FFFE00000000FFFFFC000000007FFF
FFFE00000001FFFFFC000000007FFF
FFFE00000001FFFFF8000000007FFF
FFFE00000003FFFFF8000000007FFF
FFFE00000003FFFFF0000000007FFF
FFFF00000007FFFFF0000000007FFF
FFFF00000007FFFFE000000000FFFF
7FFF0000000FFFFF8000000000FFFE
7FFF0000000FFFFE0000000000FFFE
7FFF0000001FFFF80000000000FFFE
7FFF8000001FFFE00000000000FFFE
7FFF8000003FFF800000000001FFFE
3FFF8000003FFE000000000001FFFE
3FFF8000007FF8000000000001FFFC
3FFFC000007FE0000000000003FFFC
3FFFC00000FF80000000000003FFFC
1FFFE00000FE00000000000007FFFC
1FFFE00001F800000000000007FFF8
1FFFF00001E000000000000007FFF8
0FFFF00003800000000000000FFFF8
0FFFF80002000000000000000FFFF0
0FFFF80000000000000000001FFFF0
07FFFC0000000000000000003FFFE0
07FFFC0000000000000000003FFFE0
03FFFE0000000000000000007FFFC0
03FFFF000000000000000000FFFFC0
01FFFF800000000000000001FFFF80
01FFFF800000000000000001FFFF80
00FFFFC00000000000000003FFFF00
00FFFFE00000000000000007FFFF00
007FFFF0000000000000000FFFFE00
003FFFF8000000000000001FFFFC00
003FFFFC000000000000003FFFFC00
001FFFFE000000000000007FFFF800
000FFFFF80000000000000FFFFF000
000FFFFFC0000000000003FFFFF000
0007FFFFE0000000000007FFFFE000
0003FFFFF800000000001FFFFFC000
0001FFFFFE00000000003FFFFF8000
0000FFFFFF0000000000FFFFFF0000
00007FFFFFC000000003FFFFFE0000
00003FFFFFF80000001FFFFFFC0000
00001FFFFFFF000000FFFFFFF80000
00000FFFFFFFF8001FFFFFFFF00000
000007FFFFFFFFFFFFFFFFFFE00000
000003FFFFFFFFFFFFFFFFFFC00000
000001FFFFFFFFFFFFFFFFFF800000
0000007FFFFFFFFFFFFFFFFE000000
0000003FFFFFFFFFFFFFFFFC000000
0000001FFFFFFFFFFFFFFFF8000000
00000007FFFFFFFFFFFFFFE0000000
00000001FFFFFFFFFFFFFF80000000
00000000FFFFFFFFFFFFFF00000000
000000003FFFFFFFFFFFF800000000
0000000007FFFFFFFFFFE000000000
0000000001FFFFFFFFFF8000000000
00000000003FFFFFFFFC0000000000
000000000003FFFFFFC00000000000
0000000000000FFFF0000000000000
ENDCHAR
STARTCHAR parenright
ENCODING 41
SWIDTH 1000 0
DWIDTH 120 0
BBX 96 46 12 29
BITMAP
0000000000001F8000000000
0000000000001F8000000000
FF00007F80001F80007FC000
FF80007F80003F00007FC000
FF80007F80003F0000FFC000
FFC0007F80003F0000FFE000
FFE0007F80007E0001FFE000
FFE0007F80007E0001FFE000
FFF0007F80007E0001FFF000
FFF8007F8000FC0003FFF000
FFFC007F8000FC0003FFF000
FFFC007F8000FC0003FFF800
FFFE007F8001F80007FFF800
FFFF007F8001F80007FBFC00
FFFF007F8001F80007F3FC00
FFFF807F8003F0000FF3FC00
FFFFC07F8003F0000FF1FE00
FF7FC07F8003F0000FE1FE00
FF7FE07F8007E0001FE1FE00
FF3FF07F8007E0001FE0FF00
FF1FF07F8007E0001FC0FF00
FF1FF87F800FC0003FC0FF00
FF0FF87F800FC0003FC07F80
FF07FC7F800FC0007F807F80
FF07FE7F801F80007F807F80
FF03FE7F801F80007F807FC0
FF01FF7F801F8000FF803FC0
FF01FFFF803F0000FF003FC0
FF00FFFF803F0000FFFFFFE0
FF007FFF803F0001FFFFFFE0
FF007FFF807E0001FFFFFFE0
FF003FFF807E0001FFFFFFF0
FF001FFF807E0003FFFFFFF0
FF001FFF80FC0003FFFFFFF0
FF000FFF80FC0003FFFFFFF8
FF0007FF80FC0007FC0007F8
FF0007FF81F80007F80007F8
FF0003FF81F80007F80007FC
FF0001FF81F8000FF80007FC
FF0001FF83F0000FF00003FE
FF0000FF83F0000FF00003FE
FF00007F83F0001FF00003FE
FF00007F87E0001FE00001FF
0000000007E0000000000000
0000000007E0000000000000
000000000FC0000000000000
ENDCHAR
STARTCHAR asterisk
ENCODING 42
SWIDTH 1000 0
DWIDTH 120 0
BBX 54 43 33 31
BITMAP
01F00000000000
07FC00001FFF00
1FFF00007FFFE0
3FFF8001FFFFF8
3FFF8003FFFFFC
7F1FC007FFFFF8
7C07C00FFFFFF0
FC07E01FFFFFF0
F803E01FFC07E0
F803E03FF000E0
FC07E03FE00040
7C07C03FE00000
7F0FC07FC00000
7FFFC07FC00000
3FFF807FC00000
1FFF007FC00000
0FFE007FC00000
03F0007FC00000
0000007FC00000
0000007FC00000
0000007FC00000
0000007FC00000
0000007FC00000
0000007FC00000
0000007FC00000
0000007FC00000
0000007FC00000
0000007FC00000
0000007FC00000
0000007FC00000
0000007FC00000
0000003FE00000
0000003FE00000
0000003FF000E0
0000003FFC07E0
0000001FFFFFF0
0000000FFFFFF8
0000000FFFFFF8
00000007FFFFFC
00000001FFFFF0
00000000FFFFE0
000000003FFF00
0000000003F000
ENDCHAR
STARTCHAR plus
ENCODING 43
SWIDTH 1000 0
DWIDTH 120 0
BBX 54 42 33 32
BITMAP
01F00000000000
0FFC007FFFFFFC
1FFF007FFFFFFC
3FFF807FFFFFFC
7FFF807FFFFFFC
7E1FC07FFFFFFC
FC0FC07FFFFFFC
FC07C07FFFFFFC
F807E07FFFFFFC
F807E07FC00000
FC07C07FC00000
FC07C07FC00000
7E1FC07FC00000
7FFF807FC00000
3FFF807FC00000
1FFF007FC00000
0FFC007FC00000
03F0007FC00000
0000007FFFFFE0
0000007FFFFFE0
0000007FFFFFE0
0000007FFFFFE0
0000007FFFFFE0
0000007FFFFFE0
0000007FFFFFE0
0000007FFFFFE0
0000007FC00000
0000007FC00000
0000007FC00000
0000007FC00000
0000007FC00000
0000007FC00000
0000007FC00000
0000007FC00000
0000007FC00000
0000007FC00000
0000007FC00000
0000007FC00000
0000007FC00000
0000007FC00000
0000007FC00000
0000007FC00000
ENDCHAR
STARTCHAR A
ENCODING 65
SWIDTH 1000 0
DWIDTH 120 0
BBX 72 75 24 15
BITMAP
000000003C00000000
000000007E00000000
00000000FF00000000
00000000FF00000000
00000000FF00000000
00000000FF00000000
00000000FF00000000
00000000FF00000000
00000000FF00000000
00000000FF00000000
00000000FF00000000
00000000FF00000000
00000000FF00000000
1C0000007E0000003C
7E0000003C0000007E
7F00000000000000FE
FF80000000000001FF
FFC0000000000003FF
7FE0000000000007FE
7FF000000000000FFE
3FF800000000001FFC
1FF800000000001FF8
0FF800000000001FF0
03F80007FFE0001FC0
01F0003FFFFC000F80
00E000FFFFFF000700
000003FFFFFFC00000
000007FFFFFFE00000
00001FFFFFFFF80000
00003FFFFFFFFC0000
00007FFE00FFFE0000
0000FFF0001FFF0000
0000FFE00007FF8000
0001FF800001FF8000
0003FF000000FFC000
0003FE0000007FE000
0007FC0000003FE000
0007F80000001FF000
000FF00000000FF000
000FF00000000FF000
001FE000000007F800
001FE000000007F800
001FC000000003F800
001FC000000003FC00
003FC000000003FC00
000000000000000000
000000000000000000
000000000000000000
000000000000000000
000000000000000000
000000000000000000
000000000000000000
0007FFFFFFFFFFE000
001FFFFFFFFFFFF800
003FFFFFFFFFFFFC00
003FFFFFFFFFFFFC00
003FFFFFFFFFFFFC00
003FFFFFFFFFFFFC00
003FFFFFFFFFFFFC00
000FFFFFFFFFFFF000
000000000000000000
000000000000000000
000000000000000000
000000000000000000
000000000000000000
000000000000000000
000000000000000000
000007FFFFFFE00000
00003FFFFFFFFC0000
00003FFFFFFFFC0000
00007FFFFFFFFE0000
00007FFFFFFFFE0000
00007FFFFFFFFE0000
00003FFFFFFFFC0000
00001FFFFFFFF80000
ENDCHAR
STARTCHAR B
ENCODING 66
SWIDTH 1000 0
DWIDTH 120 0
BBX 98 97 11 4
BITMAP
000000000003F0000000000000
000000000003F0000000000000
000000000007F8000000000000
000000000007F8000000000000
000000000007F8000000000000
000000000007F8000000000000
000000000007F8000000000000
000000000007F8000000000000
000000000007F8000000000000
000000000007F8000000000000
000000000007F8000000000000
000000000007F8000000000000
000000000003F0000000000000
0001E0000003F0000001E00000
0003F000000000000003F00000
0003F800000000000007F00000
0007FC0000000000000FF80000
0007FE0000000000001FF80000
0003FF0000000000003FF00000
0003FF8000000000007FF00000
0000FFC00000000000FFC00000
00007FC00000000000FF800000
00003FC0000FFC0000FF000000
00001FC000FFFFC000FE000000
00000F8003FFFFF0007C000000
000007000FFFFFFC0038000000
000000003FFFFFFF0000000000
000000007FFFFFFF8000000000
00000000FFFFFFFFC000000000
00000001FFFFFFFFE000000000
00000003FFE001FFF000000000
00000007FF00007FF800000000
0000000FFE00001FFC00000000
0000001FF8000007FE00000000
0000001FF0000003FE00000000
0000003FE0000001FF00000000
0000003FC0000000FF80000000
0000007FC0000000FF80000000
0000007F800000007F80000000
000000FF000000003FC0000000
000000FF000000003FC0000000
000000FE000000001FC0000000
000001FE000000001FE0000000
000001FE000000001FE0000000
0FF001FE000000001FE003FC00
7FFC01FC000000000FE00FFF80
7FFE01FC000000000FE01FFF80
FFFE01FC000000000FE01FFFC0
FFFE01FC000000000FE01FFFC0
FFFE01FC000000000FE01FFFC0
7FFE01FC000000000FE01FFF80
3FF801FE000000000FE007FF00
000001FE000000001FE0000000
000001FE000000001FE0000000
000001FE000000001FE0000000
000000FF000000003FC0000000
000000FF000000003FC0000000
000000FF800000007FC0000000
0000007F800000007F80000000
0000007FC0000000FF80000000
0000003FE0000001FF00000000
0000003FF0000003FF00000000
0000001FF8000007FE00000000
0000000FFC00000FFC00000000
0000000FFF00001FFC00000000
00000007FFC0007FF800000000
00000003FFF807FFF000000000
00000001FFFFFFFFE000000000
00000000FFFFFFFFC000000000
000000003FFFFFFF0000000000
000000001FFFFFFE0000000000
0000070007FFFFF80038000000
00000F8001FFFFE0007C000000
00001FC0003FFF0000FE000000
00003FC00000000000FF000000
00007FC00000000000FF800000
0000FFC00000000000FFC00000
0001FF8000000000007FF00000
0003FF0000000000003FF00000
0007FE0000000000001FF80000
0007FC0000000000000FF80000
0003F800000000000007F00000
0003F0000001E0000003F00000
0001E0000003F0000001E00000
000000000007F8000000000000
000000000007F8000000000000
000000000007F8000000000000
000000000007F8000000000000
000000000007F8000000000000
000000000007F8000000000000
000000000007F8000000000000
000000000007F8000000000000
000000000007F8000000000000
000000000007F8000000000000
000000000007F8000000000000
000000000003F0000000000000
000000000001E0000000000000
ENDCHAR
STARTCHAR C
ENCODING 67
SWIDTH 1000 0
DWIDTH 120 0
BBX 58 59 31 23
BITMAP
00001E0000000000
00007F0000000000
0001FF8000000000
0007FF8000000000
000FFF8000000000
001FFF0000000000
007FFF0000000000
00FFFF0000000000
01FFFF0000000000
01FFFF0000000000
03FFFE0000000000
07FEFE0000000000
0FFCFE0000000000
0FF8FE0000000000
1FF0FE0000000000
1FE0FF0000000000
3FE0FF0000000000
3FC0FF0000000000
7F80FF0000000000
7F80FF0000000000
7F807F8000000000
7F007F8000000000
FF007FC000000000
FF003FC000000000
FF003FE000000000
FE003FE000000000
FE001FF000000000
FE001FF800000000
FE000FFC00000000
FE0007FE00000000
FE0003FF00000000
FE0003FFC0000000
FF0001FFE0000000
FF0000FFFC000200
FF00007FFF803F80
FF00003FFFFFFFC0
7F80001FFFFFFFC0
7F800007FFFFFFC0
7FC00003FFFFFFC0
3FC00000FFFFFFC0
3FE000003FFFFF80
1FE0000007FFFF80
1FF000000001FF00
0FF800000003FF00
0FFC00000003FE00
07FE00000007FC00
03FF0000001FFC00
03FF8000003FF800
01FFE00000FFF000
00FFF80003FFE000
007FFF801FFFC000
003FFFFFFFFF8000
001FFFFFFFFF0000
0007FFFFFFFE0000
0003FFFFFFF80000
0000FFFFFFE00000
00003FFFFF800000
000007FFFC000000
0000001F00000000
ENDCHAR
STARTCHAR D
ENCODING 68
SWIDTH 1000 0
DWIDTH 120 0
BBX 90 97 15 0
BITMAP
000000000003E00000000000
000000000007F00000000000
000000000007F00000000000
000000000007F00000000000
000000000007F00000000000
000000000007F00000000000
000000000007F00000000000
000000000007F00000000000
000000000007F00000000000
000000000007F00000000000
000000000007F00000000000
000000000007F00000000000
000000000007F00000000000
0003E0000003E00000000000
0007F0000000000000000000
0007F8000000000000000000
0007FC000000000000000000
0007FE000000000000000000
0007FF000000000000000000
0003FF800000000000000000
0001FFC00000000000000000
0000FFC00000000000000000
00003FC0007FFE7FFE000000
00001F8003FFFFFFFFC00000
00000F000FFFFFFFFFF00000
000000001FFFFFFFFFF80000
000000007FFFFFFFFFFE0000
00000000FFFFFFFFFFFF0000
00000001FFFFFFFFFFFF8000
00000003FFFFFFFFFFFFC000
00000007FFCFFFFFFFFFE000
0000000FFE1FFFFFFFFFF000
0000001FFC3FFFFFFFFFF800
0000001FF83FFFFFFFFFF800
0000003FF07FFFFFFFFFFC00
0000007FE0FFFFFFFFFFFE00
0000007FC0FFFFFFFFFFFE00
000000FF81FFFFFFFFFFFF00
000000FF01FFFFFFFFFFFF00
000000FF01FFFFFFFFFFFF00
000001FE03FFFFFFFFFFFF80
000001FE03FFFFFFFFFFFF80
000001FE03FFFFFFFFFFFF80
000001FC03FFFFFFFFFFFF80
0FE001FC03FFFFFFFFFFFFC0
7FFC03FC07FFFFFFFFFFFFC0
FFFC03FC07FFFFFFFFFFFFC0
FFFE03FC07FFFFFFFFFFFFC0
FFFE03FC07FFFFFFFFFFFFC0
FFFE03FC07FFFFFFFFFFFFC0
FFFC03FC07FFFFFFFFFFFFC0
3FF803FC07FFFFFFFFFFFFC0
000001FC03FFFFFFFFFFFF80
000001FE03FFFFFFFFFFFF80
000001FE03FFFFFFFFFFFF80
000001FE03FFFFFFFFFFFF80
000000FF01FFFFFFFFFFFF80
000000FF01FFFFFFFFFFFF00
000000FF81FFFFFFFFFFFF00
0000007FC0FFFFFFFFFFFE00
0000007FC0FFFFFFFFFFFE00
0000003FE07FFFFFFFFFFC00
0000003FF07FFFFFFFFFFC00
0000001FFC3FFFFFFFFFF800
0000000FFE1FFFFFFFFFF000
00000007FF8FFFFFFFFFE000
00000003FFFFFFFFFFFFC000
00000001FFFFFFFFFFFF8000
00000000FFFFFFFFFFFF0000
000000007FFFFFFFFFFE0000
000000001FFFFFFFFFF80000
00000F000FFFFFFFFFF00000
00001F8003FFFFFFFFC00000
00003FC0007FFE7FFE000000
00007FC00000800100000000
0000FFC00000000000000000
0001FF800000000000000000
0003FF000000000000000000
0007FE000000000000000000
0007FE000000000000000000
0007FC000000000000000000
0007F8000000000000000000
0003F0000001C00000000000
0001C0000003F00000000000
000000000007F00000000000
000000000007F00000000000
000000000007F00000000000
000000000007F00000000000
000000000007F00000000000
000000000007F00000000000
000000000007F00000000000
000000000007F00000000000
000000000007F00000000000
000000000007F00000000000
000000000007F00000000000
000000000007F00000000000
000000000001C00000000000
ENDCHAR
STARTCHAR E
ENCODING 69
SWIDTH 1000 0
DWIDTH 120 0
BBX 113 67 7 23
BITMAP
0000000000001FFE00000000000000
000000000001FFFFE0000000000000
00000000000FFFFFF8000000000000
00000000003FFFFFFF000000000000
0000000000FFFFFFFF800000000000
0000000003FFFFFFFFE00000000000
0000000007FFFFFFFFF00000000000
000000001FFFFFFFFFFC0000000000
000000003FFF8000FFFE0000000000
000000007FFC00001FFF0000000000
00000000FFF0000007FF8000000000
00000001FFE0000003FFC000000000
00000003FF80000000FFE000000000
00000003FF000000007FE000000000
00000007FE000000003FF000000000
3FFFFFFFFFFFFFC0001FF800000000
7FFFFFFFFFFFFFF0000FF800000000
FFFFFFFFFFFFFFF00007FC00000000
FFFFFFFFFFFFFFF00003FC00000000
FFFFFFFFFFFFFFF00003FE00000000
7FFFFFFFFFFFFFF00001FE00000000
7FFFFFFFFFFFFFE00000FF00000000
0000007FFFFFFF800000FF00000000
0000007F0000000000007F80000000
000000FF0000000000007F80000000
000000FF0000000000007F80000000
000000FE0000000000003F80000000
000000FE0000000000003F80000000
000001FE0000000000003FC0000000
000001FE0000000000003FC0000000
003FFFFFFFFFFFFFFFFFFFFFFFFE00
007FFFFFFFFFFFFFFFFFFFFFFFFF00
00FFFFFFFFFFFFFFFFFFFFFFFFFF80
00FFFFFFFFFFFFFFFFFFFFFFFFFF80
00FFFFFFFFFFFFFFFFFFFFFFFFFF80
00FFFFFFFFFFFFFFFFFFFFFFFFFF00
007FFFFFFFFFFFFFFFFFFFFFFFFF00
000001FE0000000000003FFFFFF800
000001FE0000000000003FC0000000
000000FE0000000000003FC0000000
000000FE0000000000003F80000000
000000FF0000000000003F80000000
000000FF0000000000007F80000000
000000FF0000000000007F80000000
0000007F800000000000FF00000000
1FFFFFFFFFFFFFFFFFFFFFFF000000
7FFFFFFFFFFFFFFFFFFFFFFF800000
7FFFFFFFFFFFFFFFFFFFFFFFC00000
FFFFFFFFFFFFFFFFFFFFFFFFC00000
FFFFFFFFFFFFFFFFFFFFFFFFC00000
7FFFFFFFFFFFFFFFFFFFFFFF800000
3FFFFFFFFFFFFFFFFFFFFFFF000000
0000000FFC000000001FFFF8000000
00000007FE000000003FF000000000
00000003FF800000007FE000000000
00000001FFC0000001FFC000000000
00000000FFF0000003FF8000000000
000000007FF800000FFF0000000000
000000003FFF00007FFE0000000000
000000001FFFE003FFFC0000000000
000000000FFFFFFFFFF80000000000
0000000007FFFFFFFFF00000000000
0000000001FFFFFFFFC00000000000
00000000007FFFFFFF000000000000
00000000001FFFFFFC000000000000
000000000007FFFFF0000000000000
000000000000FFFF80000000000000
ENDCHAR
STARTCHAR F
ENCODING 70
SWIDTH 1000 0
DWIDTH 120 0
BBX 97 67 15 15
BITMAP
00000000000FF8000000000000
00000000003FFE000000000000
00000000007FFF000000000000
0000000000FFFF800000000000
0000000001FFFFC00000000000
0000000001FFFFE00000000000
0000000003FFFFE00000000000
0000000003FFFFE00000000000
0000000007FFFFF00000000000
0000000007FFFFF00000000000
0000000007FFFFF00000000000
0000000007FFFFF00000000000
0000000007FFFFF00000000000
0000000003FFFFE00000000000
0FFFFFFFFFFFFFE00000000000
7FFFFFFFFFFFFFE000007FE000
FFFFFFFFFFFFFFC00000FFF800
FFFFFFFFFFFFFFC00003FFFC00
FFFFFFFFFFFFFF800007FFFE00
FFFFFFFFFFFFFF000007FFFE00
FFFFFFFFFFFFFC00000FFFFF00
3FFFFFFFFFFFF000000FFFFF00
0000000000000000001FFFFF80
0000000000000000001FFFFF80
0000000000000000001FFFFF80
0000000000000000001FFFFF80
0000000000000000001FFFFF80
0000000000000000001FFFFF80
0000000000000000001FFFFF80
0FFFFFFFFFFFFFFFFFFFFFFF80
7FFFFFFFFFFFFFFFFFFFFFFF00
FFFFFFFFFFFFFFFFFFFFFFFF00
FFFFFFFFFFFFFFFFFFFFFFFE00
FFFFFFFFFFFFFFFFFFFFFFFC00
FFFFFFFFFFFFFFFFFFFFFFF800
FFFFFFFFFFFFFFFFFFFFFFF000
3FFFFFFFFFFFFFFFFFFFFF8000
00000000000000000000000000
00000000000000000000000000
00000000000000000000000000
00000000000000000000000000
00000000000000000000000000
00000000000000000000000000
00000000000000000000000000
07FFFFFFFFFFFFFF0000000000
7FFFFFFFFFFFFFFFF000000000
FFFFFFFFFFFFFFFFFC00000000
FFFFFFFFFFFFFFFFFE00000000
FFFFFFFFFFFFFFFFFF00000000
FFFFFFFFFFFFFFFFFF80000000
7FFFFFFFFFFFFFFFFFC0000000
3FFFFFFFFFFFFFFFFFC0000000
00000000000007FFFFC0000000
00000000000007FFFFE0000000
0000000000000FFFFFE0000000
0000000000000FFFFFE0000000
0000000000000FFFFFE0000000
0000000000000FFFFFE0000000
00000000000007FFFFC0000000
00000000000007FFFFC0000000
00000000000007FFFFC0000000
00000000000003FFFF80000000
00000000000003FFFF80000000
00000000000001FFFF00000000
00000000000000FFFE00000000
000000000000003FF800000000
000000000000000FE000000000
ENDCHAR
STARTCHAR G
ENCODING 71
SWIDTH 1000 0
DWIDTH 120 0
BBX 66 75 27 15
BITMAP
00000003F000000000
00000007F800000000
0000000FFE00000000
0000001FFE00000000
0000003FFF00000000
0000003FFF00000000
0000003FFF00000000
0000007FFF80000000
0000007FFF80000000
0000007FFF80000000
0000007FFF80000000
0000007FFF80000000
0000007FFF80000000
0000007FFF80000000
0000007FFF80000000
0FC0007FFF8000F800
3FF0007FFF8003FE00
7FF801FFFFE007FF80
7FFE07FFFFF81FFF80
FFFF8FFFFFFC7FFFC0
FFFFFFFFFFFFFFFFC0
FFFFFFFFFFFFFFFFC0
FFFFFFFFFFFFFFFFC0
FFFFFFFFFFFFFFFFC0
FFFFFFFFFFFFFFFFC0
FFFFFFFFFFFFFFFFC0
7FFFFFFFFFFFFFFF80
7FFFFFFFFFFFFFFF80
3FFFFFFFFFFFFFFF00
0FFFFFFFFFFFFFFC00
03FFFFFC0FFFFFF000
00FFFFF807FFFFE000
003FFFE003FFFF8000
001FFFE001FFFE0000
001FFFC000FFFE0000
001FFFC000FFFE0000
001FFFC000FFFF0000
003FFFC000FFFF0000
001FFFC000FFFE0000
001FFFC000FFFE0000
001FFFC000FFFE0000
001FFFE001FFFE0000
007FFFE001FFFF8000
01FFFFF007FFFFE000
03FFFFFC0FFFFFF000
0FFFFFFFFFFFFFFC00
1FFFFFFFFFFFFFFF00
7FFFFFFFFFFFFFFF80
7FFFFFFFFFFFFFFF80
FFFFFFFFFFFFFFFFC0
FFFFFFFFFFFFFFFFC0
FFFFFFFFFFFFFFFFC0
FFFFFFFFFFFFFFFFC0
FFFFFFFFFFFFFFFFC0
FFFFFFFFFFFFFFFFC0
FFFF8FFFFFFC7FFFC0
7FFE07FFFFF81FFF80
7FF801FFFFE007FF80
1FF0007FFF8003FE00
07C0007FFF8000F800
0000007FFF80000000
0000007FFF80000000
0000007FFF80000000
0000007FFF80000000
0000007FFF80000000
0000007FFF80000000
0000007FFF80000000
0000007FFF80000000
0000003FFF00000000
0000003FFF00000000
0000003FFF00000000
0000001FFE00000000
0000001FFE00000000
00000007F800000000
00000003F000000000
ENDCHAR
STARTCHAR H
ENCODING 72
SWIDTH 1000 0
DWIDTH 120 0
BBX 120 122 0 -8
BITMAP
000000000001E00000000000000000
000000000003F00000000000000000
000000000007F00000000000000000
000000000007F80000000000000000
000000000007F80000000000000000
000000000007F80000000000000000
000000000007F80000000000000000
000000000007F80000000000000000
000000000007F80000000000000000
000000000007F80000000000000000
000000000007F80000000000000000
000000000007F80000000000000000
000000000007F00000000000000000
000000000003F00000008000000000
0001C0000003E0000003E000000000
0003E000000000000007F000000000
0007F000000000000007F000000000
0007F00000000000000FF000000000
0007F80000000000001FF000000000
0007FC0000000000003FF000000000
0003FE0000000000003FE000000000
0001FF0000000000007FC000000000
0000FF800000000000FF8000000000
00007FC00000000000FF0000000000
00007FC0003FFF0001FE0000000000
00003FC001FFFFE001FC0000000000
00001FC007FFFFF800FC0000000000
00000F801FFFFFFE007C0000000000
000002007FFFFFFF00100000000000
00000000FFFFFFFFC0000000000000
00000001FFFFFFFFE0000000000000
00000003FFF003FFF0000000000000
00000007FF8000FFF8000000000000
0000000FFE00003FFC000000000000
0000001FFC00000FFC000000000000
0000001FF8000007FE000000000000
0000003FE0000003FF000000000000
0000003FE0000001FF000000000000
0000007FC0000000FF800000000000
0000007F800000007F800000000000
000000FF000000007F800000000000
000000FF000000003FC00000000000
000000FE000000003FC00000000000
000001FE000000003FC00000000000
000001FE000000001FE00000000000
000001FC000000001FE00000000000
000001FC000003FFDFE00FFF000000
700001FC00007FFFFFE01FFF800000
FFFC01FC0003FFFFFFE01FFF800000
FFFE01FC000FFFFFFFF01FFFC00000
FFFE01FC003FFFFFFFFC1FFF800000
FFFE01FC007FFFFFFFFE1FFF800000
7FFE01FC01FFFFFFFFFF8FFF000000
0FFC01FC03FFFFFFFFFFC3FC000000
0FF801FE0FFFF0001FFFF000000000
000001FE1FFF800001FFF800000000
000001FE3FFE0000007FFC00000000
000000FF7FF80000001FFE00000000
000000FFFFE00000000FFF00000000
000000FFFFC000000003FF00000000
0000007FFF8000000001FF80000000
0000007FFF0000000000FFC3E00000
00001FFFFE00000000007FFFFE0000
0000FFFFFC00000000003FFFFF8000
0003FFFFF800000000001FFFFFE000
000FFFFFF000000000000FFFFFF000
001FFFFFE0000000000007FFFFFC00
003FFFFFE0000000000007FFFFFE00
007FFFFFC0000000000003FFFFFF00
01FFF000C0000000000003000FFF80
01FFC000000000000000000003FFC0
03FF0000000000000000000000FFE0
07FE00000000000000000000007FF0
0FFC00000000000000000000003FF0
0FF800000000000000000000001FF8
1FF000000000000000000000000FF8
1FE0000000000000000000000007FC
3FC0000000000000000000000003FC
3FC0000000000000000000000003FE
7F80000000000000000000000001FE
7F80000000000000000000000001FE
7F00000000000000000000000000FE
7F00000000000000000000000000FF
FF00000000000000000000000000FF
FF00000000000000000000000000FF
FF00000000000000000000000000FF
FF00000000000000000000000000FF
FF00000000000000000000000000FF
FF00000000000000000000000000FF
FF00000000000000000000000000FF
FF00000000000000000000000000FF
FF00000000000000000000000000FF
FF00000000000000000000000000FF
FF80000000000000000000000000FE
7F80000000000000000000000001FE
7F80000000000000000000000001FE
7FC0000000000000000000000003FC
3FE0000000000000000000000003FC
3FE0000000000000000000000007FC
3FF000000000000000000000000FF8
1FF800000000000000000000001FF0
1FFC00000000000000000000003FF0
0FFE00000000000000000000007FE0
07FF80000C0000000000380001FFC0
07FFE0003E00000000007E0007FF80
03FFFC01FF0000000000FFC03FFF80
01FFFFFFFF8000000001FFFFFFFE00
00FFFFFFFFC000000003FFFFFFFC00
007FFFFFFFF000000007FFFFFFF800
003FFFFFFFF80000001FFFFFFFF000
000FFFFFFFFE0000007FFFFFFFC000
0007FFFFFFFF800001FFFFFFFF0000
0001FFFFFFFFF0000FFFFFFFF80000
00007FFFEFFFFFFFFFFFF000000000
000007FE07FFFFFFFFFFE000000000
0000000003FFFFFFFFFFC000000000
0000000000FFFFFFFFFF0000000000
00000000007FFFFFFFFE0000000000
00000000001FFFFFFFF80000000000
000000000007FFFFFFE00000000000
000000000000FFFFFF000000000000
0000000000001FFFF8000000000000
ENDCHAR
STARTCHAR I
ENCODING 73
SWIDTH 1000 0
DWIDTH 120 0
BBX 120 111 0 -8
BITMAP
000000000000000000100000000000
0000000000000000007C0000000000
000000000000000001FE0000000000
000000000000000007FE0000000000
00000000000000001FFE0000000000
00000000000000003FFE0000000000
00000000000000007FFE0000000000
0000000000000001FFFE0000000000
0000000000000003FFFC0000000000
0000000000000003FFFC0000000000
0000000000000007FFFC0000000000
000000000000000FFFFC0000000000
000000000000001FFBFC0000000000
000000000000001FF3FC0000000000
000000000000003FE3FC0000000000
000000000000003FC3FC0000000000
000000000000007FC3FC0000000000
000000000000007F83FC0000000000
00000000000000FF01FC0000000000
00000000000000FF01FE0000000000
00000000000000FF01FE0000000000
00000000000001FE01FE0000000000
00000000000001FE00FF0000000000
00000000000001FE00FF0000000000
00000000000001FC00FF8000000000
00000000000001FC007FC000000000
00000000000001FC007FC000000000
00000000000001FC003FE000000000
00000000000003FC003FF000000000
00000000000003FC001FF800000000
00000000000001FC000FFC00000000
00000000000001FC0007FE00000000
00000000000001FC0007FF80000000
00000000000001FC0003FFE0000000
00000000000001FE0001FFF8001E00
00000000000001FE0000FFFFC7FF00
00000000000001FE00003FFFFFFF80
0000000000001FFFF8001FFFFFFF80
000000000000FFFFFF800FFFFFFF80
000000000007FFFFFFE003FFFFFF00
00000000001FFFFFFFF800FFFFFF00
00000000007FFFFFFFFE003FFFFF00
0000000000FFFFFFFFFF8003FFFE00
0000000003FFFFFFFFFFC00003FE00
0000000007FFFE003FFFF00007FC00
000000000FFFE00007FFF8000FF800
000000001FFF000000FFFC001FF800
000000003FFC0000003FFE007FF000
000000007FF00000000FFF00FFE000
00000000FFE000000007FF83FFC000
00000001FFC000000001FF9FFF8000
00000003FF8000000000FFFFFF0000
00001FFFFE00000000007FFFFE0000
0000FFFFFC00000000003FFFFF0000
0003FFFFFC00000000001FFFFFC000
0007FFFFF800000000000FFFFFF000
001FFFFFF000000000000FFFFFF800
003FFFFFE0000000000007FFFFFE00
007FFFFFE0000000000003FFFFFF00
00FFFC01C0000000000003C03FFF80
01FFE000000000000000000007FFC0
03FF8000000000000000000001FFE0
07FF00000000000000000000007FE0
07FC00000000000000000000003FF0
0FF800000000000000000000001FF8
1FF000000000000000000000000FF8
1FE0000000000000000000000007FC
3FE0000000000000000000000003FC
3FC0000000000000000000000003FE
3FC0000000000000000000000001FE
7F80000000000000000000000001FE
7F80000000000000000000000000FF
7F00000000000000000000000000FF
7F00000000000000000000000000FF
FF00000000000000000000000000FF
FF000000000000000000000000007F
FF000000000000000000000000007F
FF000000000000000000000000007F
FF000000000000000000000000007F
FF000000000000000000000000007F
FF000000000000000000000000007F
7F00000000000000000000000000FF
7F00000000000000000000000000FF
7F80000000000000000000000000FF
7F80000000000000000000000000FE
7F80000000000000000000000001FE
3FC0000000000000000000000001FE
3FC0000000000000000000000003FC
1FE0000000000000000000000007FC
1FF0000000000000000000000007FC
0FF800000000000000000000000FF8
0FFC00000000000000000000001FF0
07FE00000000000000000000003FF0
03FF0000040000000000100000FFE0
03FFC0001E00000000003C0001FFC0
01FFF0007F00000000007F000FFF80
00FFFFFFFF8000000000FFFFFFFF00
007FFFFFFFC000000001FFFFFFFE00
003FFFFFFFE000000007FFFFFFFC00
000FFFFFFFF80000000FFFFFFFF800
0007FFFFFFFC0000003FFFFFFFE000
0001FFFFFFFF000000FFFFFFFF8000
00003FFFEFFFE00003FFF7FFFE0000
000007FF07FFFE003FFFE07FE00000
0000000001FFFFFFFFFFC000000000
0000000000FFFFFFFFFF0000000000
00000000003FFFFFFFFE0000000000
00000000001FFFFFFFF80000000000
000000000007FFFFFFE00000000000
000000000000FFFFFF000000000000
0000000000001FFFF8000000000000
ENDCHAR
STARTCHAR J
ENCODING 74
SWIDTH 1000 0
DWIDTH 120 0
BBX 98 97 11 8
BITMAP
000000000001E0000000000000
000000000003F0000000000000
000000000007F8000000000000
000000000007F8000000000000
000000000007F8000000000000
000000000007F8000000000000
000000000007F8000000000000
000000000007F8000000000000
000000000007F8000000000000
000000000007F8000000000000
000000000007F8000000000000
000000000007F8000000000000
000000000007F8000000000000
0000E0000003F0000001C00000
0003F0000001E0000003F00000
0003F800000000000007F00000
0007FC0000000000000FF80000
0007FE0000000000001FF80000
0003FF0000000000003FF00000
0003FF8000000000007FF00000
0001FFC00000000000FFE00000
0000FFC00000000000FFC00000
00007FC00001C00000FF800000
00001FC0007FFF8000FE000000
00000F8001FFFFF0007C000000
0000070007FFFFFC0038000000
000000001FFFFFFE0000000000
000000003FFFFFFF8000000000
00000000FFFFFFFFC000000000
00000001FFFFFFFFE000000000
00000003FFF003FFF000000000
00000007FF80007FF800000000
0000000FFE00001FFC00000000
0000000FFC00000FFC00000000
0000001FF8000007FE00000000
0000003FF0000003FF00000000
0000003FE0000001FF00000000
0000007FC0000000FF80000000
0000007F800000007F80000000
000000FF800000007FC0000000
000000FF000000003FC0000000
000000FF000000003FC0000000
000000FE000000001FE0000000
000001FE000000001FE0000000
000001FE000000001FE0000000
3FF801FE000000000FE007FF00
7FFE01FC000000000FE00FFF80
FFFE01FC000000000FE01FFFC0
FFFE01FC000000000FE01FFFC0
FFFE01FC000000000FE01FFFC0
7FFE01FC000000000FE01FFF80
7FFC01FE000000001FE00FFF80
0FF001FE00000000000003FC00
00000000000000000000000000
00000000000000000000000000
00000000000000000000000000
00000000000000000000000000
00000000000000000000000000
00000000000000000000000000
00000000000000000000000000
3FFFFFFFFFFFFFFFFFFFFFFF00
7FFFFFFFFFFFFFFFFFFFFFFF80
FFFFFFFFFFFFFFFFFFFFFFFFC0
FFFFFFFFFFFFFFFFFFFFFFFFC0
FFFFFFFFFFFFFFFFFFFFFFFFC0
7FFFFFFFFFFFFFFFFFFFFFFF80
7FFFFFFFFFFFFFFFFFFFFFFF80
0FFFFFFFFFFFFFFFFFFFFFFC00
00000000000000000000000000
00000000000000000000000000
00000000000000000000000000
00000000000000000000000000
00000000000000000000000000
00000000000000000000000000
00000000000000000000000000
3FFFFFFFFFFFFFFFFFFFFFFF00
7FFFFFFFFFFFFFFFFFFFFFFF80
FFFFFFFFFFFFFFFFFFFFFFFFC0
FFFFFFFFFFFFFFFFFFFFFFFFC0
FFFFFFFFFFFFFFFFFFFFFFFFC0
7FFFFFFFFFFFFFFFFFFFFFFF80
7FFFFFFFFFFFFFFFFFFFFFFF80
0FFFFFFFFFFFFFFFFFFFFFFC00
00000000000000000000000000
00000000000000000000000000
00000000000000000000000000
00000000000000000000000000
00000000000000000000000000
00000000000000000000000000
00000000000000000000000000
3FFFFFFFFFFFFFFFFFFFFFFF00
7FFFFFFFFFFFFFFFFFFFFFFF80
FFFFFFFFFFFFFFFFFFFFFFFFC0
FFFFFFFFFFFFFFFFFFFFFFFFC0
FFFFFFFFFFFFFFFFFFFFFFFFC0
7FFFFFFFFFFFFFFFFFFFFFFF80
7FFFFFFFFFFFFFFFFFFFFFFF80
ENDCHAR
STARTCHAR K
ENCODING 75
SWIDTH 1000 0
DWIDTH 120 0
BBX 98 90 11 8
BITMAP
00000000000800000000000000
00000000007E00000000000000
0000000001FE00000000000000
0000000007FF00000000000000
000000001FFF00000000000000
000000003FFF00000000000000
000000007FFE00000000000000
00000000FFFE00000000000000
00000001FFFE00000000000000
00000003FFFC00000000000000
00000007FFFC00000000000000
0000000FFDFC00000000000000
0000000FF9FC00000000000000
0000001FF1FC00000000000000
0000003FE1FC00000000000000
0000003FE1FC00000000000000
0000007FC1FC00000000000000
0000007F81FE00000000000000
0000007F81FE00000000000000
000000FF01FE00000000000000
000000FF00FE00000000000000
000000FE00FF00000000000000
000001FE00FF00000000000000
000001FE00FF80000000000000
000001FE007F80000000000000
000001FE007FC0000000000000
000001FC003FE0000000000000
000001FC003FE0000000000000
000001FC001FF0000000000000
000001FC000FF8000000000000
000001FC000FFE000000000000
000001FC0007FF000000000000
000001FE0003FF800000000000
000001FE0001FFE00000000000
000001FE0000FFFC001F000000
000001FE00007FFFFFFF000000
000000FF00003FFFFFFF800000
000000FF00001FFFFFFF800000
000000FF000007FFFFFF800000
0000007F800003FFFFFF800000
0000007F800000FFFFFF000000
0000007FC000001FFFFF000000
0000003FE0000001FFFE000000
0000001FF000000003FE000000
0000001FF800000007FC000000
00000000000000000000000000
00000000000000000000000000
00000000000000000000000000
00000000000000000000000000
00000000000000000000000000
00000000000000000000000000
00000000000000000000000000
00000000000000000000000000
3FFFFFFFFFFFFFFFFFFFFFFF00
7FFFFFFFFFFFFFFFFFFFFFFF80
FFFFFFFFFFFFFFFFFFFFFFFFC0
FFFFFFFFFFFFFFFFFFFFFFFFC0
FFFFFFFFFFFFFFFFFFFFFFFFC0
7FFFFFFFFFFFFFFFFFFFFFFF80
7FFFFFFFFFFFFFFFFFFFFFFF80
0FFFFFFFFFFFFFFFFFFFFFFC00
00000000000000000000000000
00000000000000000000000000
00000000000000000000000000
00000000000000000000000000
00000000000000000000000000
00000000000000000000000000
00000000000000000000000000
3FFFFFFFFFFFFFFFFFFFFFFF00
7FFFFFFFFFFFFFFFFFFFFFFF80
FFFFFFFFFFFFFFFFFFFFFFFFC0
FFFFFFFFFFFFFFFFFFFFFFFFC0
FFFFFFFFFFFFFFFFFFFFFFFFC0
7FFFFFFFFFFFFFFFFFFFFFFF80
7FFFFFFFFFFFFFFFFFFFFFFF80
0FFFFFFFFFFFFFFFFFFFFFFC00
00000000000000000000000000
00000000000000000000000000
00000000000000000000000000
00000000000000000000000000
00000000000000000000000000
00000000000000000000000000
00000000000000000000000000
3FFFFFFFFFFFFFFFFFFFFFFF00
7FFFFFFFFFFFFFFFFFFFFFFF80
FFFFFFFFFFFFFFFFFFFFFFFFC0
FFFFFFFFFFFFFFFFFFFFFFFFC0
FFFFFFFFFFFFFFFFFFFFFFFFC0
7FFFFFFFFFFFFFFFFFFFFFFF80
7FFFFFFFFFFFFFFFFFFFFFFF80
ENDCHAR
STARTCHAR L
ENCODING 76
SWIDTH 1000 0
DWIDTH 120 0
BBX 120 89 0 8
BITMAP
0000000000001FFFF8000000000000
000000000000FFFFFF000000000000
000000000007FFFFFFE00000000000
00000000001FFFFFFFF80000000000
00000000007FFFFFFFFE0000000000
0000000000FFFFFFFFFF8000000000
0000000003FFFFFFFFFFC000000000
0000000007FFFC007FFFE000000000
000000000FFFC00007FFF000000000
000000001FFF000000FFFC00000000
000000003FFC0000003FFE00000000
000000007FF00000000FFE00000000
00000000FFE000000007FF00000000
00000001FF8000000001FF80000000
00000003FF0000000000FFC0000000
00001FFFFE00000000007FFFF80000
0000FFFFFC00000000003FFFFF0000
0003FFFFF800000000001FFFFFC000
000FFFFFF000000000000FFFFFF000
001FFFFFF000000000000FFFFFF800
003FFFFFE0000000000007FFFFFC00
007FFFFFC0000000000003FFFFFF00
00FFFC03C0000000000003803FFF80
01FFE000000000000000000007FFC0
03FF8000000000000000000001FFC0
07FE00000000000000000000007FE0
0FFC00000000000000000000003FF0
0FF800000000000000000000001FF8
1FF000000000000000000000000FF8
1FE0000000000000000000000007FC
3FE0000000000000000000000007FC
3FC0000000000000000000000003FC
7F80000000000000000000000001FE
7F80000000000000000000000001FE
7F80000000000000000000000001FE
7F00000000000000000000000000FF
FF00000000000000000000000000FF
FF00000000000000000000000000FF
FF00000000000000000000000000FF
FF00000000000000000000000000FF
FF00000000000000000000000000FF
FF00000000000000000000000000FF
FF00000000000000000000000000FF
FF00000000000000000000000000FF
FF00000000000000000000000000FF
000000000000000000000000000000
000000000000000000000000000000
000000000000000000000000000000
000000000000000000000000000000
000000000000000000000000000000
000000000000000000000000000000
000000000000000000000000000000
3FFFFFFFFFFFFFFFFFFFFFFFFFFFFC
7FFFFFFFFFFFFFFFFFFFFFFFFFFFFE
FFFFFFFFFFFFFFFFFFFFFFFFFFFFFF
FFFFFFFFFFFFFFFFFFFFFFFFFFFFFF
FFFFFFFFFFFFFFFFFFFFFFFFFFFFFF
FFFFFFFFFFFFFFFFFFFFFFFFFFFFFF
7FFFFFFFFFFFFFFFFFFFFFFFFFFFFE
0FFFFFFFFFFFFFFFFFFFFFFFFFFFF0
000000000000000000000000000000
000000000000000000000000000000
000000000000000000000000000000
000000000000000000000000000000
000000000000000000000000000000
000000000000000000000000000000
000000000000000000000000000000
3FFFFFFFFFFFFFFFFFFFFFFFFFFFFC
7FFFFFFFFFFFFFFFFFFFFFFFFFFFFE
FFFFFFFFFFFFFFFFFFFFFFFFFFFFFF
FFFFFFFFFFFFFFFFFFFFFFFFFFFFFF
FFFFFFFFFFFFFFFFFFFFFFFFFFFFFF
FFFFFFFFFFFFFFFFFFFFFFFFFFFFFF
7FFFFFFFFFFFFFFFFFFFFFFFFFFFFE
0FFFFFFFFFFFFFFFFFFFFFFFFFFFF0
000000000000000000000000000000
000000000000000000000000000000
000000000000000000000000000000
000000000000000000000000000000
000000000000000000000000000000
000000000000000000000000000000
000000000000000000000000000000
3FFFFFFFFFFFFFFFFFFFFFFFFFFFFC
7FFFFFFFFFFFFFFFFFFFFFFFFFFFFE
FFFFFFFFFFFFFFFFFFFFFFFFFFFFFF
FFFFFFFFFFFFFFFFFFFFFFFFFFFFFF
FFFFFFFFFFFFFFFFFFFFFFFFFFFFFF
FFFFFFFFFFFFFFFFFFFFFFFFFFFFFF
7FFFFFFFFFFFFFFFFFFFFFFFFFFFFE
ENDCHAR
STARTCHAR M
ENCODING 77
SWIDTH 1000 0
DWIDTH 120 0
BBX 75 53 23 30
BITMAP
1FFFFFFFFFFFFFFFFE00
7FFFFFFFFFFFFFFFFF80
FFFFFFFFFFFFFFFFFFC0
FFFFFFFFFFFFFFFFFFC0
FFFFFFFFFFFFFFFFFFE0
FFFFFFFFFFFFFFFFFFC0
FFFFFFFFFFFFFFFFFFC0
7FFFFFFFFFFFFFFFFF80
00000000000000000000
00000000000000000000
00000000000000000000
00000000000000000000
00000000000000000000
00000000000000000000
00000000000000000000
1FFFFFFFFFFFFFFFFE00
7FFFFFFFFFFFFFFFFF80
FFFFFFFFFFFFFFFFFFC0
FFFFFFFFFFFFFFFFFFC0
FFFFFFFFFFFFFFFFFFE0
FFFFFFFFFFFFFFFFFFC0
FFFFFFFFFFFFFFFFFFC0
7FFFFFFFFFFFFFFFFF80
00000000000000000000
00000000000000000000
00000000000000000000
00000000000000000000
00000000000000000000
00000000000000000000
00000000000000000000
1FFFFFFFFFFFFFFFFE00
7FFFFFFFFFFFFFFFFF80
FFFFFFFFFFFFFFFFFFC0
FFFFFFFFFFFFFFFFFFC0
FFFFFFFFFFFFFFFFFFE0
FFFFFFFFFFFFFFFFFFC0
FFFFFFFFFFFFFFFFFFC0
7FFFFFFFFFFFFFFFFF80
00000000000000000000
00000000000000000000
00000000000000000000
00000000000000000000
00000000000000000000
00000000000000000000
00000000000000000000
1FFFFFFFFFFFFFFFFE00
7FFFFFFFFFFFFFFFFF80
FFFFFFFFFFFFFFFFFFC0
FFFFFFFFFFFFFFFFFFC0
FFFFFFFFFFFFFFFFFFE0
FFFFFFFFFFFFFFFFFFC0
FFFFFFFFFFFFFFFFFFC0
7FFFFFFFFFFFFFFFFF80
ENDCHAR
STARTCHAR N
ENCODING 78
SWIDTH 1000 0
DWIDTH 120 0
BBX 120 75 0 15
BITMAP
00000000000003FFC0000000000000
0000000000003FFFFE000000000000
000000000001FFFFFFC00000000000
00000000000FFFFFFFF00000000000
00000000003FFFFFFFFC0000000000
0000000000FFFFFFFFFF0000000000
0000000001FFFFFFFFFF8000000000
0000000003FFFFFFFFFFE000000000
000000000FFFF0000FFFF000000000
000000001FFF800001FFF800000000
000000003FFE0000007FFC00000000
000000007FF80000001FFE00000000
00000000FFE000000007FF00000000
00000001FFC000000003FF80000000
00000001FF8000000001FFC0000000
000007FFFF0000000000FFFFE00000
00007FFFFE00000000007FFFFE0000
0001FFFFFC00000000003FFFFF8000
0007FFFFF800000000001FFFFFE000
000FFFFFF000000000000FFFFFF000
003FFFFFE0000000000007FFFFFC00
007FFFFFE0000000000007FFFFFE00
00FFFFFFC0000000000003FFFFFF00
01FFF000C0000000000003000FFF80
03FFC000000000000000000003FFC0
07FF0000000000000000000000FFE0
07FE00000000000000000000007FF0
0FFC00000000000000000000003FF0
1FF800000000000000000000001FF8
1FF000000000000000000000000FF8
3FE0000000000000000000000007FC
3FC0000000000000000000000003FC
7FC0000000000000000000000003FE
7F80000000000000000000000001FE
7F80000000000000000000000001FE
7F00000000000000000000000000FE
FF00000000000000000000000000FF
FF00000000000000000000000000FF
FF00000000000000000000000000FF
FF00000000000000000000000000FF
FF00000000000000000000000000FF
FF00000000000000000000000000FF
FF00000000000000000000000000FF
FF00000000000000000000000000FF
FF00000000000000000000000000FF
FF00000000000000000000000000FF
FF00000000000000000000000000FF
7F80000000000000000000000000FE
7F80000000000000000000000001FE
7F80000000000000000000000001FE
3FC0000000000000000000000003FC
3FE0000000000000000000000003FC
3FE0000000000000000000000007FC
1FF000000000000000000000000FF8
0FF800000000000000000000001FF0
0FFC00000000000000000000003FF0
07FE00000000000000000000007FE0
03FF80000C0000000000380001FFC0
01FFE0003E00000000007E0007FF80
01FFFC01FF0000000000FFC03FFF80
00FFFFFFFF8000000001FFFFFFFE00
003FFFFFFFC000000003FFFFFFFC00
001FFFFFFFF000000007FFFFFFF800
000FFFFFFFF80000001FFFFFFFF000
0003FFFFFFFE0000007FFFFFFFC000
0000FFFFFFFF800001FFFFFFFF0000
00001FFFCFFFF0000FFFF3FFF80000
0000000003FFFFFFFFFFC000000000
0000000001FFFFFFFFFF8000000000
0000000000FFFFFFFFFE0000000000
00000000003FFFFFFFFC0000000000
00000000000FFFFFFFF00000000000
000000000003FFFFFF800000000000
0000000000007FFFFE000000000000
00000000000003FFC0000000000000
ENDCHAR
STARTCHAR O
ENCODING 79
SWIDTH 1000 0
DWIDTH 120 0
BBX 120 114 0 0
BITMAP
00000000000003FFC0000000000000
0000000000003FFFFE000000000000
000000000001FFFFFFC00000000000
00000000000FFFFFFFF00000000000
00000000003FFFFFFFFC0000000000
00000000007FFFFFFFFF0000000000
0000000001FFFFFFFFFF8000000000
0000000003FFFFFFFFFFE000000000
000000000FFFF0000FFFF000000000
000000001FFF800001FFF800000000
000000003FFE0000007FFC00000000
000000007FF80000001FFE00000000
00000000FFF00000000FFF00000000
00000000FFE000000007FF00000000
00000001FF8000000001FF80000000
00000003FF0000000000FFC0000000
00001FFFFE00000000007FFFF80000
0000FFFFFC00000000003FFFFF0000
0003FFFFF800000000001FFFFFC000
000FFFFFF000000000000FFFFFF000
001FFFFFF000000000000FFFFFF800
003FFFFFE0000000000007FFFFFC00
007FFFFFC0000000000003FFFFFF00
00FFFC03C0000000000003C03FFF80
01FFE000000000000000000007FFC0
03FF8000000000000000000001FFC0
07FE0000000000000000000000FFE0
0FFC00000000000000000000003FF0
0FF800000000000000000000001FF0
1FF000000000000000000000000FF8
1FE0000000000000000000000007F8
3FE0000000000000000000000007FC
3FC0000000000000000000000003FC
7FC0000000000000000000000003FE
7F80000000000000000000000001FE
7F80000000000000000000000001FE
7F00000000000000000000000000FE
FF00000000000000000000000000FF
FF00000000000000000000000000FF
FF00000000000000000000000000FF
FF00000000000000000000000000FF
FF00000000000000000000000000FF
FF00000000000000000000000000FF
FF00000000000000000000000000FF
FF00000000000000000000000000FF
FF00000000000000000000000000FF
FF00000000000000000000000000FF
FF00000000000000000000000000FF
7F80000000000000000000000000FE
7F80000000000000000000000001FE
7F80000000000000000000000001FE
3FC0000000000000000000000003FC
3FC0000000000000000000000003FC
3FE0000000000000000000000007FC
1FF000000000000000000000000FF8
1FF800000000000000000000001FF8
0FFC00000000000000000000003FF0
07FE00000000000000000000007FE0
07FF00000C0000000000300000FFE0
03FFC0003E00000000003C0003FFC0
01FFF000FF00000000007F000FFF80
00FFFFFFFF8000000000FFFFFFFF00
007FFFFFFFC000000003FFFFFFFE00
003FFFFFFFE000000007FFFFFFFC00
000FFFFFFFF00000001FFFFFFFF000
0007FFFFFFFC0000003FFFFFFFE000
0001FFFFFFFF000000FFFFFFFF8000
00007FFFEFFFE00007FFF7FFFE0000
000007FE07FFFE00FFFFE0FFE00000
0000000003FFFFFFFFFFC000000000
0000000000FFFFFFFFFF0000000000
00000000007FFFFFFFFE0000000000
00000000001FFFFFFFF80000000000
000000000007FFFFFFE00000000000
000000000000FFFFFF000000000000
0000000000001FFFF0000000000000
00000000000007FC00000000000000
0000000000000FFC00000000000000
0000000000001FFC00000000000000
0000000000003FFC00000000000000
0000000000007FF800000000000000
000000000000FFF800000000000000
000000000001FFF800000000000000
000000000003FFF000000000000000
000000000007FFF000000000000000
000000000003FFF800000000000000
000000000001FFFC00000000000000
000000000000FFFE00000000000000
0000000000007FFF00000000000000
0000000000003FFF80000000000000
0000000000001FFFC0000000000000
0000000000000FFFE0000000000000
0000000000000FFFE0000000000000
0000000000000FFFC0000000000000
0000000000000FFF80000000000000
0000000000001FFF00000000000000
0000000000001FFE00000000000000
0000000000001FFC00000000000000
0000000000003FF800000000000000
0000000000003FF000000000000000
0000000000003FE000000000000000
0000000000007FC000000000000000
0000000000007F8000000000000000
0000000000007F0000000000000000
000000000000FE0000000000000000
000000000000FC0000000000000000
000000000000F80000000000000000
000000000001F00000000000000000
000000000001E00000000000000000
000000000001C00000000000000000
000000000003800000000000000000
000000000003000000000000000000
000000000002000000000000000000
000000000004000000000000000000
ENDCHAR
STARTCHAR P
ENCODING 80
SWIDTH 1000 0
DWIDTH 120 0
BBX 120 114 0 0
BITMAP
00000000000003FFC0000000000000
0000000000003FFFFE000000000000
000000000001FFFFFFC00000000000
00000000000FFFFFFFF00000000000
00000000003FFFFFFFFC0000000000
00000000007FFFFFFFFF0000000000
0000000001FFFFFFFFFF8000000000
0000000003FFFFFFFFFFE000000000
000000000FFFF0000FFFF000000000
000000001FFF800001FFF800000000
000000003FFE0000007FFC00000000
000000007FF80000001FFE00000000
00000000FFF00000000FFF00000000
00000000FFE000000007FF00000000
00000001FF8000000001FF80000000
00000003FF0000000000FFC0000000
00001FFFFE00000000007FFFF80000
0000FFFFFC00000000003FFFFF0000
0003FFFFF800000000001FFFFFC000
000FFFFFF000000000000FFFFFF000
001FFFFFF000000000000FFFFFF800
003FFFFFE0000000000007FFFFFC00
007FFFFFC0000000000003FFFFFF00
00FFFC03C0000000000003C03FFF80
01FFE000000000000000000007FFC0
03FF8000000000000000000001FFC0
07FE0000000000000000000000FFE0
0FFC00000000000000000000003FF0
0FF800000000000000000000001FF0
1FF000000000000000000000000FF8
1FE0000000000000000000000007F8
3FE0000000000000000000000007FC
3FC0000000000000000000000003FC
7FC0000000000000000000000003FE
7F80000000000000000000000001FE
7F80000000000000000000000001FE
7F00000000000000000000000000FE
FF00000000000000000000000000FF
FF00000000000000000000000000FF
FF00000000000000000000000000FF
FF00000000000000000000000000FF
FF00000000000000000000000000FF
FF00000000000000000000000000FF
FF00000000000000000000000000FF
FF00000000000000000000000000FF
FF00000000000000000000000000FF
FF00000000000000000000000000FF
FF00000000000000000000000000FF
7F80000000000000000000000000FE
7F80000000000000000000000001FE
7F80000000000000000000000001FE
3FC0000000000000000000000003FC
3FC0000000000000000000000003FC
3FE0000000000000000000000007FC
1FF000000000000000000000000FF8
1FF800000000000000000000001FF8
0FFC00000000000000000000003FF0
07FE00000000000000000000007FE0
07FF00000C0000000000100000FFE0
03FFC0001C00000000003C0003FFC0
01FFF000FE00000000007F000FFF80
00FFFFFFFF8000001001FFFFFFFF00
007FFFFFFFC000002003FFFFFFFE00
003FFFFFFFE000002007FFFFFFFC00
000FFFFFFFF80000601FFFFFFFF000
0007FFFFFFFE0000C03FFFFFFFE000
0001FFFFFFFF8001C03FFFFFFF8000
00007FFFEFFFE003C07FF7FFFE0000
000007FE07FFC007807FE0FFE00000
0000000003FF800F807FC000000000
0000000000FF001F80FF0000000000
00000000007E003F00FE0000000000
00000000001C007F00F80000000000
00000000000000FF01C00000000000
00000000000001FE01000000000000
00000000000003FE00000000000000
00000000000007FE00000000000000
0000000000000FFC00000000000000
0000000000001FFC00000000000000
0000000000003FFC00000000000000
0000000000007FF800000000000000
000000000000FFF800000000000000
000000000001FFF800000000000000
000000000003FFF000000000000000
000000000007FFF000000000000000
000000000003FFF800000000000000
000000000001FFFC00000000000000
000000000000FFFE00000000000000
0000000000007FFF00000000000000
0000000000003FFF80000000000000
0000000000001FFFC0000000000000
0000000000000FFFE0000000000000
0000000000000FFFE0000000000000
0000000000000FFFC0000000000000
0000000000000FFF80000000000000
0000000000001FFF00000000000000
0000000000001FFE00000000000000
0000000000001FFC00000000000000
0000000000003FF800000000000000
0000000000003FF000000000000000
0000000000003FE000000000000000
0000000000007FC000000000000000
0000000000007F8000000000000000
0000000000007F0000000000000000
000000000000FE0000000000000000
000000000000FC0000000000000000
000000000000F80000000000000000
000000000001F00000000000000000
000000000001E00000000000000000
000000000001C00000000000000000
000000000003800000000000000000
000000000003000000000000000000
000000000002000000000000000000
000000000004000000000000000000
ENDCHAR
STARTCHAR Q
ENCODING 81
SWIDTH 1000 0
DWIDTH 120 0
BBX 120 105 0 -1
BITMAP
00000000000003FFC0000000000000
0000000000003FFFFE000000000000
000000000001FFFFFFC00000000000
00000000000FFFFFFFF00000000000
00000000003FFFFFFFFC0000000000
0000000000FFFFFFFFFF0000000000
0000000001FFFFFFFFFF8000000000
0000000003FFFFFFFFFFE000000000
000000000FFFF0000FFFF000000000
000000001FFF800001FFF800000000
000000003FFE0000007FFC00000000
000000007FF80000001FFE00000000
00000000FFE000000007FF00000000
00000001FFC000000003FF80000000
00000001FF8000000001FFC0000000
000007FFFF0000000000FFFFE00000
00007FFFFE00000000007FFFFE0000
0001FFFFFC00000000003FFFFF8000
0007FFFFF800000000001FFFFFE000
000FFFFFF000000000000FFFFFF000
003FFFFFE0000000000007FFFFFC00
007FFFFFE0000000000007FFFFFE00
00FFFFFFC0000000000003FFFFFF00
01FFF000C0000000000003000FFF80
03FFC000000000000000000003FFC0
07FF0000000000000000000000FFE0
07FE00000000000000000000007FF0
0FFC00000000000000000000003FF0
1FF800000000000000000000001FF8
1FF000000000000000000000000FF8
3FE0000000000000000000000007FC
3FC0000000000000000000000003FC
7FC0000000000000000000000003FE
7F80000000000000000000000001FE
7F80000000000000000000000001FE
7F00000000000000000000000000FE
FF00000000000000000000000000FF
FF00000000000000000000000000FF
FF00000000000000000000000000FF
FF00000000000000000000000000FF
FF00000000000000000000000000FF
FF00000000000000000000000000FF
FF00000000000000000000000000FF
FF00000000000000000000000000FF
FF00000000000000000000000000FF
FF00000000000000000000000000FF
FF00000000000000000000000000FF
7F80000000000000000000000000FE
7F80000000000000000000000001FE
7F80000000000000000000000001FE
3FC0000000000000000000000003FC
3FE0000000000000000000000003FC
3FE0000000000000000000000007FC
1FF000000000000000000000000FF8
0FF800000000000000000000001FF0
0FFC00000000000000000000003FF0
07FE00000000000000000000007FE0
03FF80000C0000000000380001FFC0
01FFE0003E00000000007E0007FF80
01FFFC01FF0000000000FFC03FFF80
00FFFFFFFF8000000001FFFFFFFE00
003FFFFFFFC000000003FFFFFFFC00
001FFFFFFFF000000007FFFFFFF800
000FFFFFFFF80000001FFFFFFFF000
0003FFFFFFFE0000007FFFFFFFC000
0000FFFFFFFF800001FFFFFFFF0000
00001FFFCFFFF0000FFFF3FFF80000
0000000003FFFFFFFFFFC000000000
0000000001FFFFFFFFFF8000000000
0000000000FFFFFFFFFE0000000000
00000000003FFFFFFFFC0000000000
00000000000FFFFFFFF00000000000
000000000003FFFFFF800000000000
0000000000007FFFFE000000000000
00000000000003FFC0000000000000
000000000000000000000000000000
000000000000000000000000000000
000000000000000000000000000000
000000000000000000000000000000
000000000000000000000000000000
000000000000000000000000000000
000000000000000000000000000000
000000000000000000000000000000
000000000000001800000000000000
000000000000001800000000000000
000000000000003C00000000000000
000000000000007E00000000000000
000000000000007E00000000000000
00000000000000FF00000000000000
00000000000000FF00000000000000
00000000000001FF80000000000000
00000000000003FF80000000000000
00000000000003FFC0000000000000
00000000000003FFC0000000000000
00000000000007FFE0000000000000
00000000000007FFE0000000000000
00000000000007FFE0000000000000
0000000000000FFFF0000000000000
00000000000007FFE0000000000000
00000000000007FFE0000000000000
00000000000007FFE0000000000000
00000000000003FFC0000000000000
00000000000003FFC0000000000000
00000000000000FF00000000000000
000000000000007E00000000000000
ENDCHAR
STARTCHAR R
ENCODING 82
SWIDTH 1000 0
DWIDTH 120 0
BBX 120 122 0 -8
BITMAP
00000000000003FFC0000000000000
0000000000003FFFFE000000000000
000000000001FFFFFFC00000000000
00000000000FFFFFFFF00000000000
00000000003FFFFFFFFC0000000000
00000000007FFFFFFFFF0000000000
0000000001FFFFFFFFFF8000000000
0000000003FFFFFFFFFFE000000000
000000000FFFF0000FFFF000000000
000000001FFF800001FFF800000000
000000003FFE0000007FFC00000000
000000007FF80000001FFE00000000
00000000FFF00000000FFF00000000
00000000FFE000000007FF00000000
00000001FF8000000001FF80000000
00000003FF0000000000FFC0000000
00001FFFFE00000000007FFFF80000
0000FFFFFC00000000003FFFFF0000
0003FFFFF800000000001FFFFFC000
000FFFFFF000000000000FFFFFF000
001FFFFFF000000000000FFFFFF800
003FFFFFE0000000000007FFFFFC00
007FFFFFC0000000000003FFFFFF00
00FFFC03C0000000000003C03FFF80
01FFE000000000000000000007FFC0
03FF8000000000000000000001FFC0
07FE0000000000000000000000FFE0
0FFC00000000000000000000003FF0
0FF800000000000000000000001FF0
1FF000000000000000000000000FF8
1FE0000000000000000000000007F8
3FE0000000000000000000000007FC
3FC0000000000000000000000003FC
7FC0000000000000000000000003FE
7F80000000000000000000000001FE
7F80000000000000000000000001FE
7F00000000000000000000000000FE
FF00000000000000000000000000FF
FF00000000000000000000000000FF
FF00000000000000000000000000FF
FF00000000000000000000000000FF
FF00000000000000000000000000FF
FF00000000000000000000000000FF
FF00000000000000000000000000FF
FF00000000000000000000000000FF
FF00000000000000000000000000FF
FF00000000000000000000000000FF
FF00000000000000000000000000FF
7F80000000000000000000000000FE
7F80000000000000000000000001FE
7F80000000000000000000000001FE
3FC0000000000000000000000003FC
3FC0000000000000000000000003FC
3FE0000000000000000000000007FC
1FF000000000000000000000000FF8
1FF800000000000000000000001FF8
0FFC00000000000000000000003FF0
07FE00000000000000000000007FE0
07FF00000C0000000000300000FFE0
03FFC0003E00000000003C0003FFC0
01FFF000FF00000000007F000FFF80
00FFFFFFFF8000000000FFFFFFFF00
007FFFFFFFC000000003FFFFFFFE00
003FFFFFFFE000000007FFFFFFFC00
000FFFFFFFF00000000FFFFFFFF000
0007FFFFFFFC0000003FFFFFFFE000
0001FFFFFFFF000000FFFFFFFF8000
00007FFFEFFFE00003FFF7FFFE0000
000007FE07FFFE003FFFE0FFE00000
0000000003FFFFFFFFFFC000000000
0000000000FFFFFFFFFF0000000000
00000000007FFFFFFFFE0000000000
00000000001FFFFFFFF80000000000
000000000007FFFFFFE00000000000
000000000000FFFFFF000000000000
0000000000001FFFF8000000000000
000000000000000000000000000000
000000060000000000000000000000
000000060000000000000000000000
0000000F0000000000000000000000
0000001F8000000000000000000000
0000001F8000000000000000000000
0000003FC000000000000000000000
0000003FC000000000000000000000
0000007FE000000000000000000000
0000007FE000000000000000000000
000000FFF000000000000000000000
000000FFF000000000000000000000
000001FFF800000000000000000000
000001FFF800000000000000000000
000001FFF800000000000000000000
000001FFFC00000000000000000000
000001FFF800000000000040000000
000001FFF800000000000060000000
000001FFF8000000000000F0000000
000001FFF8000000000000F0000000
000000FFF0000000000001F8000000
0000007FE0000000000003FC000000
0000003FC0000000000003FC000000
0000000600000000000007FE000000
0000000000000008000007FE000000
000000000000001800000FFF000000
000000000000003C00000FFF000000
000000000000003E00001FFF800000
000000000000007E00001FFF800000
000000000000007F00001FFF800000
00000000000000FF00001FFF800000
00000000000001FF80003FFFC00000
00000000000001FFC0001FFF800000
00000000000003FFC0001FFF800000
00000000000003FFC0001FFF800000
00000000000003FFE0000FFF000000
00000000000007FFE00007FE000000
00000000000007FFF00003FC000000
00000000000007FFF00001F8000000
00000000000007FFF0000000000000
00000000000007FFF0000000000000
00000000000007FFE0000000000000
00000000000003FFE0000000000000
00000000000003FFC0000000000000
00000000000001FF80000000000000
00000000000000FF00000000000000
ENDCHAR
STARTCHAR S
ENCODING 83
SWIDTH 1000 0
DWIDTH 120 0
BBX 120 59 0 23
BITMAP
000000000000000007FFF000000000
00000000000000007FFFFE00000000
0000000000000001FFFFFFC0000000
0000000000000007FFFFFFE0000000
000000000000000FFFFFFFF8000000
000000000000003FFFFFFFFC000000
000000000000007FFFFFFFFF000000
00000000000000FFFE007FFF800000
00000000000001FFF00007FFC00000
0000000000007FFFC00001FFFE0000
000000000001FFFF0000007FFFC000
000000000007FFFE0000003FFFF000
00000000001FFFF80000001FFFFC00
00000000003FFFF00000000FFFFE00
0000000000FFFFF000000007FFFF00
0000000001FFFFE000000003FFFF80
0000000003FFF0000000000007FFC0
0000000003FF80000000000001FFE0
0000000007FE000000000000007FF0
000000000FFC000000000000001FF8
000000000FF8000000000000000FF8
000000001FF00000000000000007FC
007FFFF01FE00000000000000007FC
00FFFFF83FC00000000000000003FE
00FFFFFC3FC00000000000000001FE
00FFFFFC7F800000000000000001FE
00FFFFFC7F800000000000000000FE
00FFFFFC7F800000000000000000FF
007FFFF87F000000000000000000FF
001FFFC07F000000000000000000FF
000000007F000000000000000000FF
000000007F000000000000000000FF
000000007F000000000000000000FF
000000007F000000000000000000FF
000000007F000000000000000000FF
000000007F800000000000000000FF
000000007F800000000000000000FF
3FFFF8007F800000000000000000FE
7FFFFC003FC00000000000000001FE
FFFFFC003FC00000000000000001FE
FFFFFE003FE00000000000000003FC
FFFFFC001FE00000000000000007FC
FFFFFC001FF0000000000000000FF8
7FFFF8000FF8000000000000001FF8
0FFFE0000FFC000000000000003FF0
0000000007FF000000000000007FF0
0000000003FFC0000000000003FFE0
0000000001FFFFFE0000003FFFFFC0
0000000000FFFFFF000000FFFFFF80
00000000007FFFFFC00001FFFFFF00
00000000003FFFFFF00007FFFFFE00
00000000001FFFFFFF007FFFFFF800
3FFFFFFFF007FFFFFFFFFFFFFFE000
7FFFFFFFF801FFFFFFFFFFFFFF8000
FFFFFFFFF8001FFFFFFFFFFFFC0000
FFFFFFFFFC000007FFFFFFE0000000
FFFFFFFFF8000001FFFFFF80000000
FFFFFFFFF80000007FFFFE00000000
7FFFFFFFF000000007FFF000000000
ENDCHAR
STARTCHAR T
ENCODING 84
SWIDTH 1000 0
DWIDTH 120 0
BBX 120 105 0 -1
BITMAP
000000000000000001FFC000000000
00000000000000001FFFFC00000000
0000000000000000FFFFFF80000000
0000000000000003FFFFFFE0000000
0000000000000007FFFFFFF0000000
000000000000001FFFFFFFFC000000
000000000000003FFFFFFFFE000000
000000000000007FFFFFFFFF000000
00000000000000FFF8001FFF800000
0000000000000FFFE00003FFF00000
000000000000FFFF800000FFFF0000
000000000007FFFE0000007FFFE000
00000000000FFFFC0000001FFFF800
00000000003FFFF80000000FFFFC00
00000000007FFFF000000007FFFE00
0000000000FFFFE000000003FFFF80
0000000001FFFFC000000003FFFFC0
0000000003FFE0000000000003FFC0
0000000007FF00000000000000FFE0
000000000FFE000000000000003FF0
000000000FF8000000000000001FF8
000000001FF0000000000000000FF8
001FFFC01FF00000000000000007FC
007FFFF83FE00000000000000003FC
00FFFFFC3FC00000000000000003FE
00FFFFFC3FC00000000000000001FE
00FFFFFC7F800000000000000001FE
00FFFFFC7F800000000000000000FF
00FFFFF87F800000000000000000FF
007FFFF07F000000000000000000FF
000000007F000000000000000000FF
000000007F000000000000000000FF
000000007F000000000000000000FF
000000007F000000000000000000FF
000000007F000000000000000000FF
000000007F000000000000000000FF
000000007F800000000000000000FF
0FFFE0007F800000000000000000FF
7FFFF8007F800000000000000001FE
FFFFFC003FC00000000000000001FE
FFFFFC003FC00000000000000003FE
FFFFFE003FE00000000000000003FC
FFFFFC001FF00000000000000007FC
7FFFFC001FF0000000000000000FF8
3FFFF8000FF8000000000000001FF8
0000000007FE000000000000003FF0
0000000007FF00000000000000FFF0
0000000003FFC0040000000003FFE0
0000000001FFFFFE0000003FFFFFC0
0000000000FFFFFF800000FFFFFF80
00000000007FFFFFE00003FFFFFF00
00000000003FFFFFFC001FFFFFFE00
0FFFFFFFC00FFFFFFFFFFFFFFFF800
7FFFFFFFF007FFFFFFFFFFFFFFE000
FFFFFFFFF801FFFFFFFFFFFFFF8000
FFFFFFFFF8001FFFFFFFFFF7FC0000
FFFFFFFFFC000007FFFFFFC0000000
FFFFFFFFF8000000FFFFFF00000000
7FFFFFFFF80000003FFFFC00000000
3FFFFFFFF000000001FFC000000000
000000000000000000000000000000
000000000000000000000000000000
000000000000000000000000000000
000000000000000000000000000000
000000000000000000000000000000
000000000000000000000000000000
000000000000000000000000000000
000000000000000000000000000000
000000000000001800000000000000
000000000000001800000000000000
000000000000003C00000000000000
000000000000007E00000000000000
000000000000007E00000000000000
00000000000000FF00000000000000
00000000000001FF80000000000000
00000000000001FF80000000000000
00000000000003FFC0000000000000
00000000000003FFC0000000000000
00000000000003FFC0000000000000
00000000000007FFE0000000000000
00000000000007FFE0000000000000
00000000000007FFE0000000000000
0000000000000FFFF0000000000000
00000000000007FFE0000060000000
00000000000007FFE0000060000000
00000000000007FFE00000F0000000
00000000000003FFC00001F8000000
00000000000001FF800001F8000000
00000000000000FF000003FC000000
000000000000003C000003FC000000
0000000000000000000007FE000000
000000000000000000000FFE000000
000000000000000000000FFF000000
000000000000000000000FFF000000
000000000000000000001FFF800000
000000000000000000001FFF800000
000000000000000000001FFF800000
000000000000000000003FFFC00000
000000000000000000001FFF800000
000000000000000000001FFF800000
000000000000000000001FFF800000
000000000000000000000FFF000000
000000000000000000000FFF000000
0000000000000000000003FC000000
0000000000000000000001F8000000
ENDCHAR
STARTCHAR U
ENCODING 85
SWIDTH 1000 0
DWIDTH 120 0
BBX 120 122 0 -8
BITMAP
00000000000003FFC0000000000000
0000000000003FFFFE000000000000
000000000001FFFFFFC00000000000
00000000000FFFFFFFF00000000000
00000000003FFFFFFFFC0000000000
0000000000FFFFFFFFFF0000000000
0000000001FFFFFFFFFF8000000000
0000000003FFFFFFFFFFE000000000
000000000FFFF0000FFFF000000000
000000001FFF800001FFF800000000
000000003FFE0000007FFC00000000
000000007FF80000001FFE00000000
00000000FFE000000007FF00000000
00000001FFC000000003FF80000000
00000001FF8000000001FFC0000000
000007FFFF0000000000FFFFE00000
00007FFFFE00000000007FFFFE0000
0001FFFFFC00000000003FFFFF8000
0007FFFFF800000000001FFFFFE000
000FFFFFF000000000000FFFFFF000
003FFFFFE0000000000007FFFFFC00
007FFFFFE0000000000007FFFFFE00
00FFFFFFC0000000000003FFFFFF00
01FFF000C0000000000003000FFF80
03FFC000000000000000000003FFC0
07FF0000000000000000000000FFE0
07FE00000000000000000000007FE0
0FFC00000000000000000000003FF0
1FF800000000000000000000001FF8
1FF000000000000000000000000FF8
3FE0000000000000000000000007FC
3FC0000000000000000000000003FC
3FC0000000000000000000000003FE
7F80000000000000000000000001FE
7F80000000000000000000000001FE
7F00000000000000000000000000FE
FF00000000000000000000000000FF
FF00000000000000000000000000FF
FF00000000000000000000000000FF
FF00000000000000000000000000FF
FF00000000000000000000000000FF
FF00000000000000000000000000FF
FF00000000000000000000000000FF
FF00000000000000000000000000FF
FF00000000000000000000000000FF
FF00000000000000000000000000FF
FF00000000000000000000000000FF
7F00000000000000000000000000FE
7F80000000000000000000000001FE
7F80000000000000000000000001FE
7FC0000000000000000000000001FE
3FC0000000000000000000000003FC
3FE0000000000000000000000007FC
1FE0000000000000000000000007F8
1FF000000000000000000000000FF8
0FF800000000000000000000001FF0
0FFC00000000000000000000003FF0
07FF00000000000000000000007FE0
03FF80001C0000000000380001FFC0
01FFE0007E00000000007E0007FF80
01FFFC01FF0000000000FFC03FFF80
00FFFFFFFF8000000001FFFFFFFE00
003FFFFFFFC000000003FFFFFFFC00
001FFFFFFFF000000007FFFFFFF800
000FFFFFFFF80000001FFFFFFFF000
0003FFFFFFFE0000007FFFFFFFC000
0000FFFFFFFF800001FFFFFFFF0000
00001FFFCFFFF0000FFFF3FFF80000
0000000003FFFFFFFFFFC000000000
0000000001FFFFFFFFFF8000000000
0000000000FFFFFFFFFE0000000000
00000000003FFFFFFFFC0000000000
00000000000FFFFFFFF00000000000
000000000003FFFFFF800000000000
0000000000007FFFFE000000000000
00000000000003FFC0000000000000
000000000000000000000000000000
000000000000000000000000000000
000000000000000000000000000000
000000000000000000000000000000
000000000000003E00000000000000
000000000000007E00000000000000
00000000000000FF00000000000000
00000000000000FF00000000000000
00000000000000FF00000000000000
00000000000000FF00000000000000
00000000000000FF00000000000000
00000000000000FF00000000000000
00000000000F00FF00F00000000000
00000000001F83FFC1FC0000000000
00000000003FE7FFE7FC0000000000
00000000003FFFFFFFFC0000000000
00000000003FFFFFFFFC0000000000
00000000003FFFFFFFFC0000000000
00000000003FFFFFFFFC0000000000
00000000001FFFFFFFF80000000000
000000000007FFE7FFE00000000000
000000000003FF81FFC00000000000
000000000000FF00FF000000000000
000000000000FF00FF000000000000
000000000000FF00FF000000000000
000000000000FF00FF000000000000
000000000000FF00FF000000000000
000000000001FF81FF800000000000
000000000007FFC3FFE00000000000
00000000000FFFFFFFF00000000000
00000000001FFFFFFFF80000000000
00000000003FFFFFFFFC0000000000
00000000003FFFFFFFFC0000000000
00000000003FFFFFFFFC0000000000
00000000003FFFFFFFFC0000000000
00000000003FC3FFC3FC0000000000
00000000001F00FF00F80000000000
00000000000000FF00000000000000
00000000000000FF00000000000000
00000000000000FF00000000000000
00000000000000FF00000000000000
00000000000000FF00000000000000
00000000000000FF00000000000000
00000000000000FF00000000000000
000000000000007E00000000000000
000000000000001800000000000000
ENDCHAR
STARTCHAR V
ENCODING 86
SWIDTH 1000 0
DWIDTH 120 0
BBX 120 99 0 15
BITMAP
00000000000003FFC0000000000000
0000000000003FFFFE000000000000
000000000001FFFFFFC00000000000
00000000000FFFFFFFF00000000000
00000000003FFFFFFFFC0000000000
0000000000FFFFFFFFFF0000000000
0000000001FFFFFFFFFF8000000000
0000000003FFFFFFFFFFE000000000
000000000FFFF0000FFFF000000000
000000001FFF800001FFF800000000
000000003FFE0000007FFC00000000
000000007FF80000001FFE00000000
00000000FFE000000007FF00000000
00000001FFC000000003FF80000000
00000001FF8000000001FFC0000000
000007FFFF0000000000FFFFE00000
00007FFFFE00000000007FFFFE0000
0001FFFFFC00000000003FFFFF8000
0007FFFFF800000000001FFFFFE000
000FFFFFF000000000000FFFFFF000
003FFFFFE0000000000007FFFFFC00
007FFFFFE0000000000007FFFFFE00
00FFFFFFC0000000000003FFFFFF00
01FFF000C0000000000003000FFF80
03FFC000000000000000000003FFC0
07FF0000000000000000000000FFE0
07FE00000000000000000000007FE0
0FFC00000000000000000000003FF0
1FF800000000000000000000001FF8
1FF000000000000000000000000FF8
3FE0000000000000000000000007FC
3FC0000000000000000000000003FC
3FC0000000000000000000000003FE
7F80000000000000000000000001FE
7F80000000000000000000000001FE
7F00000000000000000000000000FE
FF00000000000000000000000000FF
FF00000000000000000000000000FF
FF00000000000000000000000000FF
FF00000000000000000000000000FF
FF00000000000000000000000000FF
FF00000000000000000000000000FF
FF00000000000000000000000000FF
FF00000000000000000000000000FF
FF00000000000000000000000000FF
FF00000000000000000000000000FF
FF00000000000000000000000000FF
7F00000000000000000000000000FE
7F80000000000000000000000001FE
7F80000000000000000000000001FE
7FC0000000000000000000000001FE
3FC0000000000000000000000003FC
3FE0000000000000000000000007FC
1FE0000000000000000000000007F8
1FF000000000000000000000000FF8
0FF800000000000000000000001FF0
07FC00000000000000000000003FF0
07FF00000000003E00000000007FE0
03FF80001C00007E0000380001FFC0
01FFE0007E0000FF00007E0007FF80
00FFFC01FC0000FF00003FC03FFF80
007FFFFFF80000FF00001FFFFFFE00
003FFFFFF00000FF00000FFFFFFC00
001FFFFFF00000FF00000FFFFFF800
0007FFFFE00000FF000007FFFFF000
0003FFFFE00F00FF00F007FFFFC000
0000FFFFC01F83FFC1FC03FFFF0000
00001FFF803FE7FFE7FC01FFF80000
00000000003FFFFFFFFC0000000000
00000000003FFFFFFFFC0000000000
00000000003FFFFFFFFC0000000000
00000000003FFFFFFFFC0000000000
00000000001FFFFFFFF80000000000
000000000007FFE7FFE00000000000
000000000003FF81FFC00000000000
000000000000FF00FF000000000000
000000000000FF00FF000000000000
000000000000FF00FF000000000000
000000000000FF00FF000000000000
000000000000FF00FF000000000000
000000000001FF81FF800000000000
000000000007FFC3FFE00000000000
00000000000FFFFFFFF00000000000
00000000001FFFFFFFF80000000000
00000000003FFFFFFFFC0000000000
00000000003FFFFFFFFC0000000000
00000000003FFFFFFFFC0000000000
00000000003FFFFFFFFC0000000000
00000000003FC3FFC3FC0000000000
00000000001F00FF00F80000000000
00000000000000FF00000000000000
00000000000000FF00000000000000
00000000000000FF00000000000000
00000000000000FF00000000000000
00000000000000FF00000000000000
00000000000000FF00000000000000
00000000000000FF00000000000000
000000000000007E00000000000000
000000000000001800000000000000
ENDCHAR
STARTCHAR W
ENCODING 87
SWIDTH 1000 0
DWIDTH 120 0
BBX 120 122 0 -8
BITMAP
00000000000003FFC0000000000000
0000000000003FFFFE000000000000
000000000001FFFFFFC00000000000
00000000000FFFFFFFF00000000000
00000000003FFFFFFFFC0000000000
0000000000FFFFFFFFFF0000000000
0000000001FFFFFFFFFF8000000000
0000000003FFFFFFFFFFE000000000
000000000FFFF0000FFFF000000000
000000001FFF800001FFF800000000
000000003FFE0000007FFC00000000
000000007FF80000001FFE00000000
00000000FFE000000007FF00000000
00000001FFC000000003FF80000000
00000001FF8000000001FFC0000000
000007FFFF0000000000FFFC000000
00007FFFFE00000000007FFFE00000
0001FFFFFC00000000003FFFFE0000
0007FFFFF800000000001FFFFF8000
000FFFFFF000000000000FFFFFE000
003FFFFFE0000000000007FFFFF000
007FFFFFE0000000000007FFFFFC00
00FFFFFFC0000000000003FFFFFE00
01FFF000C0000000000003000FFF00
03FFC000000000000000000003FF80
07FF0000000000000000000000FFC0
07FE00000000000000000000007FE0
0FFC00000000000000000000003FF0
1FF800000000000000000000001FF0
1FF000000000000000000000000FF8
3FE0000000000000000000000007F8
3FC0000000000000000000000003FC
3FC0000000000000000000000003FC
7F80000000000000000000000001FE
7F80000000000000000000000001FE
7F00000000000000000000000000FE
FF00000000000000000000000000FE
FF00000000000000000000000000FF
FF00000000000000000000000000FF
FF00000000000000000000000000FF
FF00000000000000000000000000FF
FF00000000000000000000000000FF
FF00000000000000000000000000FF
FF00000000000000000000000000FF
FF00000000000000000000000000FF
FF00000000000000000000000000FF
FF00000000000000000000000000FF
7F00000000000000000000000000FF
7F80000000000000000000000001FE
7F80000000000000000000000001FE
7FC0000000000000000000000001FE
3FC0000000000000000000000003FC
3FE0000000000000000000000007FC
1FE0000000000000000000000007FC
1FF000000000000000000000000FF8
0FF800000000000000000000001FF0
0FFC00000000000000000000003FF0
07FF00000000000000002000007FE0
03FF80000C0000000000380001FFC0
01FFE0003E00000000007E0007FF80
01FFFC01FF0000000000FFC03FFF80
00FFFFFFFF8000000001FFFFFFFE00
003FFFFFFFC000000003FFFFFFFC00
001FFFFFFFF000000007FFFFFFF800
000FFFFFFFF80000001FFFFFFFF000
0003FFFFFFFE0000007FFFFFFFC000
0000FFFFFFFF800001FFFFFFFF0000
00001FFFCFFFF0000FFFF3FFF80000
0000000003FFFFFFFFFFC000000000
0000000001FFFFFFFFFF8000000000
0000000000FFFFFFFFFE0000000000
00000000003FFFFFFFFC0000000000
00000000000FFFFFFFF00000000000
000000000003FFFFFF800000000000
0000040000007FFFFE000000000000
00000F00000003FFC0000000000000
00001F000000000000000000000000
001C1F000000000000000000000000
003E1F000000000000000000000000
007F7E000000000000000000000000
003FFF000000007E00000000000000
001FFFB00000007F00000000000000
000FFFFC000000FF00000000F00000
000FFFFE000000FF00000000F80000
000F8FFE000000FF00000000F81800
000F87FE000000FF00000000F83C00
007F03FC000000FF00000000787C00
01FF87C0000000FF000000007FFC00
01FFCFC0001F00FF00F80000FFFC00
01FFFFC0003FC3FFC3FC003DFFF800
00FFFFC0003FE7FFF7FC007FFFF000
0003FFE0003FFFFFFFFC007FF7F000
0001FFF0003FFFFFFFFC007FE1F000
0003FFF8003FFFFFFFFC003FC0F800
0003F1F0003FFFFFFFFC0003E0FF00
0003E0F0001FFFFFFFF80003E1FF80
0003E0000007FFFFFFE00003FFFF80
0003C0000003FF81FFC00003FFFF80
000080000000FF00FF000007FFFF00
000000000000FF00FF00000FFFC000
000000000000FF00FF00001FFF8000
000000000000FF00FF00001F8FC000
000000000000FF00FF00000F07C000
000000000001FF81FF80000007C000
000000000003FFC3FFE0000007C000
00000000000FFFFFFFF80000038000
00000000001FFFFFFFFC0000000000
00000000003FFFFFFFFC0000000000
00000000003FFFFFFFFC0000000000
00000000003FFFFFFFFC0000000000
00000000003FFFFFE7FC0000000000
00000000003FC7FFC1FC0000000000
00000000001F00FF00F00000000000
00000000000000FF00000000000000
00000000000000FF00000000000000
00000000000000FF00000000000000
00000000000000FF00000000000000
00000000000000FF00000000000000
00000000000000FF00000000000000
00000000000000FF00000000000000
000000000000007E00000000000000
000000000000001800000000000000
ENDCHAR
STARTCHAR X
ENCODING 88
SWIDTH 1000 0
DWIDTH 120 0
BBX 120 121 0 -7
BITMAP
00000000000003FFC0000000000000
0000000000003FFFFE000000000000
000000000001FFFFFFC00000000000
00000000000FFFFFFFF00000000000
00000000003FFFFFFFFC0000000000
0000000000FFFFFFFFFF0000000000
0000000001FFFFFFFFFF8000000000
0000000003FFFFFFFFFFE000000000
000000000FFFF0000FFFF000000000
000000001FFF800001FFF800000000
000000003FFE0000007FFC00000000
000000007FF80000001FFE00000000
00000000FFE000000007FF00000000
00000001FFC000000003FF80000000
00000001FF8000000001FFC0000000
000007FFFF0000000000FFFC000000
00007FFFFE00000000007FFFE00000
0001FFFFFC00000000003FFFFE0000
0007FFFFF800000000001FFFFF8000
000FFFFFF000000000000FFFFFE000
003FFFFFE0000000000007FFFFF000
007FFFFFE0000000000007FFFFFC00
00FFFFFFC0000000000003FFFFFE00
01FFF00000000000000000000FFF00
03FFC000000000000000000003FF80
07FF0000000000000000000000FFC0
07FE00000000000000000000007FE0
0FFC00000000000000000000003FF0
1FF800000000000000000000001FF0
1FF000000000000000000000000FF8
3FE0000000000000000000000007F8
3FC0000000000000000000000003FC
3FC0000000000000000000000003FC
7F80000000000000000000000001FE
7F80000000000000000000000001FE
7F00000000000000000000000000FE
FF00000000000000000000000000FE
FF00000000000000000000000000FF
FF00000000000000000000000000FF
FF00000000000000000000000000FF
FF00000000000000000000000000FF
FF00000000000000000000000000FF
FF00000000000000000000000000FF
FF00000000000000000000000000FF
FF00000000000000000000000000FF
FF00000000000000000000000000FF
FF00000000000000000000000000FF
7F00000000000000000000000000FF
7F80000000000000000000000001FE
7F80000000000000000000000001FE
7FC0000000000000000000000001FE
3FC0000000000000000000000003FC
3FE0000000000000000000000007FC
1FE0000000000000000000000007FC
1FF000000000000000000000000FF8
0FF800000000000000000000001FF0
0FFC00000000000000000000003FF0
07FF00000000000000000000007FE0
03FF8000080000000000100001FFC0
01FFE0003E00000000007C0007FF80
00FFFC01FF0000000000FFC03FFF80
007FFFFFFF8000000001FFFFFFFE00
003FFFFFFFC000000003FFFFFFFC00
001FFFFFFFF000000007FFFFFFF800
000FFFFFFFF80000001FFFFFFFF000
0003FFFFFFFE0000007FFFFFFFC000
0000FFFFFFFF800001FFFFFFFF0000
00001FFFCFFFF0000FFFF3FFF80000
0000000003FFFFFFFFFFC000000000
0000000001FFFFFFFFFF8000000000
0000000000FFFFFFFFFE0000000000
00000000003FFFFFFFFC0000000000
00000000000FFFFFFFF00000000000
000000000003FFFFFF800000000000
0000000000007FFFFE000000000000
00000000000003FFC0000000000000
00000F800000000000000001F00000
00003FE00000000000000007FC0000
00007FF0000000000000000FFE0000
0000FFF8000000000000001FFF0000
0000FFF8000000000000001FFF0000
0001FFFC000000000000003FFF8000
0001FFFC000000000000003FFF8000
0001FFFC000000000000003FFF8000
0001FFFC000000FF0000003FFF8000
0001FFFC000001FF8000003FFF8000
0000FFF8000003FFC000001FFF0000
0000FFF8000007FFE000001FFF0000
00007FF0000007FFE000000FFE0000
00003FE0000007FFE0000007FC0000
00000F80000007FFF0000001F00000
00000000000007FFE0000000000000
00000000000007FFE0000000000000
00000000000007FFE0000000000000
00000000000007FFE0000000000000
00000000000003FFC0000000000000
00000000000001FF80000000000000
00000000000000FF00000000000000
000000000000000000000000000000
000000000000000000000000000000
000000000000000000000000000000
000000000000000000000000000000
000000000000000000000000000000
000000000000000000000000000000
000000000000000000000000000000
000000000000000000000000000000
000000001F0000000000F800000000
000000007FC000000003FE00000000
00000000FFE000000007FF00000000
00000001FFF00000000FFF80000000
00000001FFF00000000FFF80000000
00000003FFF80000001FFFC0000000
00000003FFF80000001FFFC0000000
00000003FFF80000001FFFC0000000
00000003FFF80000001FFFC0000000
00000003FFF80000001FFFC0000000
00000001FFF00000000FFF80000000
00000001FFF00000000FFF80000000
00000000FFE000000007FF00000000
000000007FC000000003FE00000000
000000001F0000000000F800000000
ENDCHAR
STARTCHAR Y
ENCODING 89
SWIDTH 1000 0
DWIDTH 120 0
BBX 120 95 0 -8
BITMAP
000000000000000007FF8000000000
00000000000000003FFFF800000000
0000000000000001FFFFFE00000000
0000000000000007FFFFFF80000000
000000000000001FFFFFFFE0000000
000000000000003FFFFFFFF0000000
000000000000007FFFFFFFF8000000
00000000000000FFFFFFFFFC000000
00000000000001FFF8007FFE000000
00000000000003FFC0000FFF000000
00000000000007FF800007FF800000
000000000003FFFE000001FFFF0000
00000000001FFFFC000000FFFFE000
00000000007FFFF00000003FFFF800
0000000001FFFFE00000001FFFFE00
0000000003FFFFE00000001FFFFF00
0000000007FFFFC00000000FFFFF80
000000000FFFFF8000000007FFFFC0
000000001FFFFF8000000003FFFFE0
000000003FFC00000000000000FFF0
000000007FF0000000000000003FF8
000000007FC01FFFF8000000000FF8
00000000FF80FFFFFF0000000007FC
00000000FF07FFFFFFE000000003FC
00000001FF1FFFFFFFF800000003FE
00000001FE7FFFFFFFFE00000001FE
00000001FEFFFFFFFFFF80000000FE
00000003FFFFFFFFFFFFC0000000FF
00000003FFFFFC007FFFE0000000FF
00000003FFFFC00007FFF0000000FF
00000003FFFF000000FFFC000000FF
00000003FFFC0000003FFE000000FF
00000003FFF00000000FFE000000FF
00000003FFE000000007FF000000FF
00000003FFC000000001FF800000FF
00000003FF0000000000FFC00000FF
00001FFFFE00000000007FFFF800FE
0000FFFFFC00000000003FFFFF01FE
0003FFFFF800000000001FFFFFC1FE
000FFFFFF800000000000FFFFFF3FC
001FFFFFF000000000000FFFFFFFFC
003FFFFFE0000000000007FFFFFFFC
007FFFFFE0000000000003FFFFFFF8
00FFFC03C0000000000003803FFFF0
01FFE000000000000000000007FFF0
03FF8000000000000000000001FFE0
07FE0000000000000000000000FFE0
0FFC00000000000000000000003FF0
0FF800000000000000000000001FF0
1FF000000000000000000000000FF8
1FE0000000000000000000000007F8
3FE0000000000000000000000007FC
3FC0000000000000000000000003FC
7F80000000000000000000000001FE
7F80000000000000000000000001FE
7F80000000000000000000000001FE
7F00000000000000000000000000FF
FF00000000000000000000000000FF
FF00000000000000000000000000FF
FF00000000000000000000000000FF
FF00000000000000000000000000FF
FF00000000000000000000000000FF
FF00000000000000000000000000FF
FF00000000000000000000000000FF
FF00000000000000000000000000FF
FF00000000000000000000000000FF
FF00000000000000000000000000FF
7F00000000000000000000000000FE
7F80000000000000000000000001FE
7F80000000000000000000000001FE
7FC0000000000000000000000003FE
3FC0000000000000000000000003FC
3FE0000000000000000000000007FC
1FF000000000000000000000000FF8
1FF800000000000000000000000FF8
0FFC00000000000000000000001FF0
07FE00000000000000000000007FE0
07FF00000C0000000000100000FFE0
03FFC0001C0000000000380003FFC0
01FFF000FE00000000007F000FFF80
00FFFFFFFF0000000000FFFFFFFF00
007FFFFFFFC000000001FFFFFFFE00
003FFFFFFFE000000007FFFFFFFC00
000FFFFFFFF00000000FFFFFFFF000
0007FFFFFFFC0000003FFFFFFFE000
0001FFFFFFFF000000FFFFFFFF8000
00007FFFEFFFE00003FFF7FFFE0000
000007FE07FFFE003FFFE0FFE00000
0000000003FFFFFFFFFFC000000000
0000000000FFFFFFFFFF0000000000
00000000007FFFFFFFFE0000000000
00000000001FFFFFFFF80000000000
000000000007FFFFFFE00000000000
000000000000FFFFFF000000000000
0000000000001FFFF8000000000000
ENDCHAR
STARTCHAR Z
ENCODING 90
SWIDTH 1000 0
DWIDTH 120 0
BBX 120 121 0 -7
BITMAP
000000000000000007FF8000000000
00000000000000003FFFF800000000
0000000000000001FFFFFE00000000
0000000000000007FFFFFF80000000
000000000000001FFFFFFFE0000000
000000000000003FFFFFFFF0000000
000000000000007FFFFFFFF8000000
00000000000000FFFFFFFFFC000000
00000000000001FFF8007FFE000000
00000000000003FFC0000FFF000000
00000000000007FF000003FF800000
000000000003FFFE000001FFFF0000
00000000001FFFF80000007FFFE000
00000000007FFFF00000003FFFF800
0000000001FFFFE00000001FFFFE00
0000000003FFFFC00000000FFFFF00
0000000007FFFFC00000000FFFFF80
000000000FFFFF8000000007FFFFC0
000000001FFFFF8000000003FFFFE0
000000003FFC00000000000000FFF0
000000007FF0000000000000003FF8
000000007FC01FFFF8000000000FF8
00000000FF80FFFFFF0000000007FC
00000000FF07FFFFFFE000000003FC
00000001FF1FFFFFFFF800000003FE
00000001FE7FFFFFFFFE00000001FE
00000001FEFFFFFFFFFF00000001FE
00000003FFFFFFFFFFFFC0000000FF
00000003FFFFFE007FFFE0000000FF
00000003FFFFE00007FFF0000000FF
00000003FFFF000000FFF8000000FF
00000003FFFC0000003FFC000000FF
00000003FFF80000001FFE000000FF
00000003FFE000000007FF000000FF
00000003FFC000000003FF800000FF
00000003FF8000000001FFC00000FF
000007FFFF0000000000FFFFE000FF
00007FFFFE00000000007FFFFE01FE
0001FFFFFC00000000003FFFFF81FE
0007FFFFF800000000001FFFFFE3FE
000FFFFFF000000000000FFFFFFBFC
003FFFFFE0000000000007FFFFFFFC
007FFFFFE0000000000007FFFFFFF8
00FFFFFFC0000000000003FFFFFFF8
01FFF000C0000000000003001FFFF0
03FFC000000000000000000003FFE0
07FF0000000000000000000000FFE0
07FE00000000000000000000007FE0
0FFC00000000000000000000003FF0
1FF800000000000000000000001FF8
1FF000000000000000000000000FF8
3FE0000000000000000000000007FC
3FC0000000000000000000000003FC
3FC0000000000000000000000003FC
7F80000000000000000000000001FE
7F80000000000000000000000001FE
7F00000000000000000000000000FE
FF00000000000000000000000000FF
FF00000000000000000000000000FF
FF00000000000000000000000000FF
FF00000000000000000000000000FF
FF00000000000000000000000000FF
FF00000000000000000000000000FF
FF00000000000000000000000000FF
FF00000000000000000000000000FF
FF00000000000000000000000000FF
FF00000000000000000000000000FF
FF00000000000000000000000000FF
7F00000000000000000000000000FE
7F80000000000000000000000001FE
7F80000000000000000000000001FE
7FC0000000000000000000000003FE
3FC0000000000000000000000003FC
3FE0000000000000000000000007FC
1FF000000000000000000000000FF8
1FF800000000000000000000001FF8
0FFC00000000000000000000003FF0
07FE00000000000000000000007FE0
07FF00000C0000000000100000FFE0
03FFC0001C00000000003C0003FFC0
01FFF000FE00000000007F000FFF80
00FFFFFFFF0000000000FFFFFFFF00
007FFFFFFFC000000003FFFFFFFE00
003FFFFFFFE000000007FFFFFFFC00
000FFFFFFFF00000000FFFFFFFF000
0007FFFFFFFC0000003FFFFFFFE000
0001FFFFFFFF000000FFFFFFFF8000
00007FFFEFFFE00007FFF7FFFE0000
000007FE07FFFE00FFFFE0FFE00000
0000000003FFFFFFFFFFC000000000
0000000000FFFFFFFFFF0000000000
00000000007FFFFFFFFE0000000000
00000000001FFFFFFFF80000000000
000000000003FFFFFFE00000000000
000000000000FFFFFF000000000000
0000000000003FFFF0000000000000
000000000000FFF800000000000000
000000000001FFF800000000000000
000000000007FFF000000000000000
000000000003FFF800000000000000
000000000001FFFC00000000000000
000000000000FFFE00000000000000
0000000000007FFF00000000000000
0000000000003FFF80000000000000
0000000000001FFFC0000000000000
0000000000000FFFE0000000000000
0000000000000FFFE0000000000000
0000000000000FFF80000000000000
0000000000001FFF00000000000000
0000000000001FFC00000000000000
0000000000003FF800000000000000
0000000000003FE000000000000000
0000000000007FC000000000000000
0000000000007F0000000000000000
000000000000FE0000000000000000
000000000000F80000000000000000
000000000001F00000000000000000
000000000001C00000000000000000
000000000003800000000000000000
000000000002000000000000000000
000000000004000000000000000000
ENDCHAR
STARTCHAR .notdef
ENCODING -1
SWIDTH 1000 0
DWIDTH 120 0
BBX 1 1 0 0
BITMAP
00
ENDCHAR
STARTCHAR NULL
ENCODING -1
SWIDTH 0 0
DWIDTH 0 0
BBX 1 1 0 0
BITMAP
00
ENDCHAR
STARTCHAR CR
ENCODING -1
SWIDTH 1000 0
DWIDTH 120 0
BBX 1 1 0 0
BITMAP
00
ENDCHAR
ENDFONT
